<svg width="317" height="120" viewBox="0 0 317 120" fill="none" xmlns="http://www.w3.org/2000/svg">
<g clip-path="url(#clip0_2_25410)">
<path d="M0 24C0 10.7452 10.7452 0 24 0H293C306.255 0 317 10.7452 317 24V96C317 109.255 306.255 120 293 120H24C10.7452 120 0 109.255 0 96V24Z" fill="#212121"/>
<path d="M16 24C16 17.3726 21.3726 12 28 12H106C112.627 12 118 17.3726 118 24C118 30.6274 112.627 36 106 36H28C21.3726 36 16 30.6274 16 24Z" fill="#0ACB7E"/>
<path d="M30.39 28.12C29.8433 28.12 29.3333 28.0233 28.86 27.83C28.3867 27.6367 27.9733 27.3667 27.62 27.02C27.2667 26.6733 26.99 26.2667 26.79 25.8C26.5967 25.3267 26.5 24.8167 26.5 24.27C26.5 23.7167 26.5967 23.2067 26.79 22.74C26.9833 22.2733 27.2567 21.8667 27.61 21.52C27.9633 21.1733 28.3767 20.9067 28.85 20.72C29.3233 20.5267 29.8367 20.43 30.39 20.43C30.9433 20.43 31.4567 20.5267 31.93 20.72C32.4033 20.9133 32.8167 21.1833 33.17 21.53C33.5233 21.87 33.7967 22.2733 33.99 22.74C34.19 23.2067 34.29 23.7167 34.29 24.27C34.29 24.8167 34.19 25.3267 33.99 25.8C33.79 26.2667 33.5133 26.6733 33.16 27.02C32.8067 27.3667 32.3933 27.6367 31.92 27.83C31.4533 28.0233 30.9433 28.12 30.39 28.12ZM30.39 26.88C30.7567 26.88 31.0933 26.8167 31.4 26.69C31.7067 26.5567 31.9733 26.3733 32.2 26.14C32.4333 25.9067 32.61 25.63 32.73 25.31C32.8567 24.99 32.92 24.6433 32.92 24.27C32.92 23.8967 32.8567 23.5533 32.73 23.24C32.61 22.92 32.4333 22.6433 32.2 22.41C31.9733 22.17 31.7067 21.9867 31.4 21.86C31.0933 21.7333 30.7567 21.67 30.39 21.67C30.03 21.67 29.6967 21.7333 29.39 21.86C29.0833 21.9867 28.8133 22.17 28.58 22.41C28.3533 22.6433 28.1767 22.92 28.05 23.24C27.9233 23.5533 27.86 23.8967 27.86 24.27C27.86 24.6433 27.9233 24.99 28.05 25.31C28.1767 25.63 28.3533 25.9067 28.58 26.14C28.8133 26.3733 29.0833 26.5567 29.39 26.69C29.6967 26.8167 30.03 26.88 30.39 26.88ZM35.8993 28V20.55H36.9593L41.0593 26.07L40.5093 26.18V20.55H41.8693V28H40.7993L36.7593 22.44L37.2593 22.33V28H35.8993ZM47.2414 28.12C46.7081 28.12 46.2147 28.0233 45.7614 27.83C45.3081 27.6367 44.9114 27.3667 44.5714 27.02C44.2314 26.6733 43.9647 26.2667 43.7714 25.8C43.5847 25.3333 43.4914 24.8233 43.4914 24.27C43.4914 23.7167 43.5814 23.2067 43.7614 22.74C43.9481 22.2667 44.2081 21.86 44.5414 21.52C44.8814 21.1733 45.2781 20.9067 45.7314 20.72C46.1847 20.5267 46.6781 20.43 47.2114 20.43C47.7447 20.43 48.2214 20.52 48.6414 20.7C49.0681 20.88 49.4281 21.12 49.7214 21.42C50.0147 21.7133 50.2247 22.0367 50.3514 22.39L49.1414 22.97C49.0014 22.5833 48.7647 22.27 48.4314 22.03C48.0981 21.79 47.6914 21.67 47.2114 21.67C46.7447 21.67 46.3314 21.78 45.9714 22C45.6181 22.22 45.3414 22.5233 45.1414 22.91C44.9481 23.2967 44.8514 23.75 44.8514 24.27C44.8514 24.79 44.9514 25.2467 45.1514 25.64C45.3581 26.0267 45.6414 26.33 46.0014 26.55C46.3614 26.77 46.7747 26.88 47.2414 26.88C47.6214 26.88 47.9714 26.8067 48.2914 26.66C48.6114 26.5067 48.8681 26.2933 49.0614 26.02C49.2547 25.74 49.3514 25.41 49.3514 25.03V24.46L49.9714 25H47.2114V23.85H50.7114V24.6C50.7114 25.1733 50.6147 25.68 50.4214 26.12C50.2281 26.56 49.9647 26.93 49.6314 27.23C49.3047 27.5233 48.9347 27.7467 48.5214 27.9C48.1081 28.0467 47.6814 28.12 47.2414 28.12ZM55.8576 28.12C55.3109 28.12 54.8009 28.0233 54.3276 27.83C53.8542 27.6367 53.4409 27.3667 53.0876 27.02C52.7342 26.6733 52.4576 26.2667 52.2576 25.8C52.0642 25.3267 51.9676 24.8167 51.9676 24.27C51.9676 23.7167 52.0642 23.2067 52.2576 22.74C52.4509 22.2733 52.7242 21.8667 53.0776 21.52C53.4309 21.1733 53.8442 20.9067 54.3176 20.72C54.7909 20.5267 55.3042 20.43 55.8576 20.43C56.4109 20.43 56.9242 20.5267 57.3976 20.72C57.8709 20.9133 58.2842 21.1833 58.6376 21.53C58.9909 21.87 59.2642 22.2733 59.4576 22.74C59.6576 23.2067 59.7576 23.7167 59.7576 24.27C59.7576 24.8167 59.6576 25.3267 59.4576 25.8C59.2576 26.2667 58.9809 26.6733 58.6276 27.02C58.2742 27.3667 57.8609 27.6367 57.3876 27.83C56.9209 28.0233 56.4109 28.12 55.8576 28.12ZM55.8576 26.88C56.2242 26.88 56.5609 26.8167 56.8676 26.69C57.1742 26.5567 57.4409 26.3733 57.6676 26.14C57.9009 25.9067 58.0776 25.63 58.1976 25.31C58.3242 24.99 58.3876 24.6433 58.3876 24.27C58.3876 23.8967 58.3242 23.5533 58.1976 23.24C58.0776 22.92 57.9009 22.6433 57.6676 22.41C57.4409 22.17 57.1742 21.9867 56.8676 21.86C56.5609 21.7333 56.2242 21.67 55.8576 21.67C55.4976 21.67 55.1642 21.7333 54.8576 21.86C54.5509 21.9867 54.2809 22.17 54.0476 22.41C53.8209 22.6433 53.6442 22.92 53.5176 23.24C53.3909 23.5533 53.3276 23.8967 53.3276 24.27C53.3276 24.6433 53.3909 24.99 53.5176 25.31C53.6442 25.63 53.8209 25.9067 54.0476 26.14C54.2809 26.3733 54.5509 26.5567 54.8576 26.69C55.1642 26.8167 55.4976 26.88 55.8576 26.88ZM61.3669 28V20.55H62.7269V28H61.3669ZM64.5598 28V20.55H65.6198L69.7198 26.07L69.1698 26.18V20.55H70.5298V28H69.4598L65.4198 22.44L65.9198 22.33V28H64.5598ZM75.902 28.12C75.3686 28.12 74.8753 28.0233 74.422 27.83C73.9686 27.6367 73.572 27.3667 73.232 27.02C72.892 26.6733 72.6253 26.2667 72.432 25.8C72.2453 25.3333 72.152 24.8233 72.152 24.27C72.152 23.7167 72.242 23.2067 72.422 22.74C72.6086 22.2667 72.8686 21.86 73.202 21.52C73.542 21.1733 73.9386 20.9067 74.392 20.72C74.8453 20.5267 75.3386 20.43 75.872 20.43C76.4053 20.43 76.882 20.52 77.302 20.7C77.7286 20.88 78.0886 21.12 78.382 21.42C78.6753 21.7133 78.8853 22.0367 79.012 22.39L77.802 22.97C77.662 22.5833 77.4253 22.27 77.092 22.03C76.7586 21.79 76.352 21.67 75.872 21.67C75.4053 21.67 74.992 21.78 74.632 22C74.2786 22.22 74.002 22.5233 73.802 22.91C73.6086 23.2967 73.512 23.75 73.512 24.27C73.512 24.79 73.612 25.2467 73.812 25.64C74.0186 26.0267 74.302 26.33 74.662 26.55C75.022 26.77 75.4353 26.88 75.902 26.88C76.282 26.88 76.632 26.8067 76.952 26.66C77.272 26.5067 77.5286 26.2933 77.722 26.02C77.9153 25.74 78.012 25.41 78.012 25.03V24.46L78.632 25H75.872V23.85H79.372V24.6C79.372 25.1733 79.2753 25.68 79.082 26.12C78.8886 26.56 78.6253 26.93 78.292 27.23C77.9653 27.5233 77.5953 27.7467 77.182 27.9C76.7686 28.0467 76.342 28.12 75.902 28.12ZM86.6955 28.12C86.1488 28.12 85.6388 28.0233 85.1655 27.83C84.6921 27.6367 84.2788 27.3667 83.9255 27.02C83.5721 26.6733 83.2955 26.2667 83.0955 25.8C82.9021 25.3267 82.8055 24.8167 82.8055 24.27C82.8055 23.7167 82.9021 23.2067 83.0955 22.74C83.2888 22.2733 83.5621 21.8667 83.9155 21.52C84.2688 21.1733 84.6821 20.9067 85.1555 20.72C85.6288 20.5267 86.1421 20.43 86.6955 20.43C87.2488 20.43 87.7621 20.5267 88.2355 20.72C88.7088 20.9133 89.1221 21.1833 89.4755 21.53C89.8288 21.87 90.1021 22.2733 90.2955 22.74C90.4955 23.2067 90.5955 23.7167 90.5955 24.27C90.5955 24.8167 90.4955 25.3267 90.2955 25.8C90.0955 26.2667 89.8188 26.6733 89.4655 27.02C89.1121 27.3667 88.6988 27.6367 88.2255 27.83C87.7588 28.0233 87.2488 28.12 86.6955 28.12ZM86.6955 26.88C87.0621 26.88 87.3988 26.8167 87.7055 26.69C88.0121 26.5567 88.2788 26.3733 88.5055 26.14C88.7388 25.9067 88.9155 25.63 89.0355 25.31C89.1621 24.99 89.2255 24.6433 89.2255 24.27C89.2255 23.8967 89.1621 23.5533 89.0355 23.24C88.9155 22.92 88.7388 22.6433 88.5055 22.41C88.2788 22.17 88.0121 21.9867 87.7055 21.86C87.3988 21.7333 87.0621 21.67 86.6955 21.67C86.3355 21.67 86.0021 21.7333 85.6955 21.86C85.3888 21.9867 85.1188 22.17 84.8855 22.41C84.6588 22.6433 84.4821 22.92 84.3555 23.24C84.2288 23.5533 84.1655 23.8967 84.1655 24.27C84.1655 24.6433 84.2288 24.99 84.3555 25.31C84.4821 25.63 84.6588 25.9067 84.8855 26.14C85.1188 26.3733 85.3888 26.5567 85.6955 26.69C86.0021 26.8167 86.3355 26.88 86.6955 26.88ZM88.4155 28.9L86.0955 25.02H87.5155L89.8655 28.9H88.4155ZM95.0748 28.12C94.5014 28.12 93.9914 28 93.5448 27.76C93.1048 27.52 92.7581 27.19 92.5048 26.77C92.2514 26.35 92.1248 25.8733 92.1248 25.34V20.55H93.4848V25.27C93.4848 25.5767 93.5514 25.8533 93.6848 26.1C93.8248 26.3467 94.0148 26.54 94.2548 26.68C94.4948 26.8133 94.7681 26.88 95.0748 26.88C95.3881 26.88 95.6614 26.8133 95.8948 26.68C96.1348 26.54 96.3214 26.3467 96.4548 26.1C96.5948 25.8533 96.6648 25.5767 96.6648 25.27V20.55H98.0248V25.34C98.0248 25.8733 97.8981 26.35 97.6448 26.77C97.3914 27.19 97.0414 27.52 96.5948 27.76C96.1548 28 95.6481 28.12 95.0748 28.12ZM99.7825 28V20.55H101.143V28H99.7825ZM102.395 28V26.93L106.005 21.75H102.605V20.55H107.735V21.62L104.135 26.8H107.835V28H102.395Z" fill="white"/>
<g clip-path="url(#clip1_2_25410)">
<path d="M5.68421 12H19L9.31579 36H-4L5.68421 12Z" fill="white" fill-opacity="0.5"/>
</g>
<circle opacity="0.5" cx="118" cy="15" r="1" fill="#0ACB7E"/>
<circle cx="130" cy="24" r="1" fill="#0ACB7E"/>
<circle opacity="0.8" cx="119" cy="23" r="2" fill="#0ACB7E"/>
<circle cx="127" cy="31" r="1" fill="#0ACB7E"/>
<circle opacity="0.5" cx="122.5" cy="28.5" r="0.5" fill="#0ACB7E"/>
<circle opacity="0.5" cx="136" cy="27" r="2" fill="#0ACB7E"/>
<circle opacity="0.2" cx="127" cy="17" r="2" fill="#0ACB7E"/>
<circle opacity="0.6" cx="121.5" cy="21.5" r="0.5" transform="rotate(180 121.5 21.5)" fill="#0ACB7E"/>
<path d="M17.078 69V58.57H21.474C22.1273 58.57 22.692 58.6867 23.168 58.92C23.644 59.144 24.008 59.4707 24.26 59.9C24.512 60.32 24.638 60.8193 24.638 61.398C24.638 61.902 24.5073 62.364 24.246 62.784C23.994 63.1947 23.5973 63.5213 23.056 63.764V63.064C23.532 63.2507 23.9193 63.4887 24.218 63.778C24.5167 64.058 24.7313 64.3753 24.862 64.73C25.002 65.0847 25.072 65.458 25.072 65.85C25.072 66.83 24.75 67.6 24.106 68.16C23.4713 68.72 22.5987 69 21.488 69H17.078ZM18.73 67.53H21.614C22.1647 67.53 22.6033 67.3807 22.93 67.082C23.2567 66.774 23.42 66.368 23.42 65.864C23.42 65.3507 23.2567 64.9447 22.93 64.646C22.6033 64.338 22.1647 64.184 21.614 64.184H18.73V67.53ZM18.73 62.728H21.516C21.964 62.728 22.3233 62.602 22.594 62.35C22.8647 62.0887 23 61.748 23 61.328C23 60.908 22.8647 60.5813 22.594 60.348C22.3233 60.1147 21.964 59.998 21.516 59.998H18.73V62.728ZM26.6174 69V61.426H28.1994V69H26.6174ZM26.6174 60.39V58.57H28.1994V60.39H26.6174ZM33.703 69.168C32.975 69.168 32.3077 68.9953 31.701 68.65C31.1037 68.3047 30.6277 67.8333 30.273 67.236C29.9183 66.6387 29.741 65.962 29.741 65.206C29.741 64.4407 29.9183 63.764 30.273 63.176C30.6277 62.5787 31.1037 62.112 31.701 61.776C32.2983 61.4307 32.9657 61.258 33.703 61.258C34.4497 61.258 35.117 61.4307 35.705 61.776C36.3023 62.112 36.7737 62.5787 37.119 63.176C37.4737 63.764 37.651 64.4407 37.651 65.206C37.651 65.9713 37.4737 66.6527 37.119 67.25C36.7643 67.8473 36.2883 68.3187 35.691 68.664C35.0937 69 34.431 69.168 33.703 69.168ZM33.703 67.698C34.151 67.698 34.5477 67.5907 34.893 67.376C35.2383 67.1613 35.509 66.8673 35.705 66.494C35.9103 66.1113 36.013 65.682 36.013 65.206C36.013 64.73 35.9103 64.3053 35.705 63.932C35.509 63.5587 35.2383 63.2647 34.893 63.05C34.5477 62.8353 34.151 62.728 33.703 62.728C33.2643 62.728 32.8677 62.8353 32.513 63.05C32.1677 63.2647 31.8923 63.5587 31.687 63.932C31.491 64.3053 31.393 64.73 31.393 65.206C31.393 65.682 31.491 66.1113 31.687 66.494C31.8923 66.8673 32.1677 67.1613 32.513 67.376C32.8677 67.5907 33.2643 67.698 33.703 67.698ZM41.7968 69V58.57H46.1928C46.8461 58.57 47.4108 58.6867 47.8868 58.92C48.3628 59.144 48.7268 59.4707 48.9788 59.9C49.2308 60.32 49.3568 60.8193 49.3568 61.398C49.3568 61.902 49.2261 62.364 48.9648 62.784C48.7128 63.1947 48.3161 63.5213 47.7748 63.764V63.064C48.2508 63.2507 48.6381 63.4887 48.9368 63.778C49.2354 64.058 49.4501 64.3753 49.5808 64.73C49.7208 65.0847 49.7908 65.458 49.7908 65.85C49.7908 66.83 49.4688 67.6 48.8248 68.16C48.1901 68.72 47.3174 69 46.2068 69H41.7968ZM43.4488 67.53H46.3328C46.8834 67.53 47.3221 67.3807 47.6488 67.082C47.9754 66.774 48.1388 66.368 48.1388 65.864C48.1388 65.3507 47.9754 64.9447 47.6488 64.646C47.3221 64.338 46.8834 64.184 46.3328 64.184H43.4488V67.53ZM43.4488 62.728H46.2348C46.6828 62.728 47.0421 62.602 47.3128 62.35C47.5834 62.0887 47.7188 61.748 47.7188 61.328C47.7188 60.908 47.5834 60.5813 47.3128 60.348C47.0421 60.1147 46.6828 59.998 46.2348 59.998H43.4488V62.728ZM51.3361 69V61.426H52.8481V62.952L52.7081 62.728C52.8761 62.2333 53.1468 61.8787 53.5201 61.664C53.8934 61.44 54.3414 61.328 54.8641 61.328H55.3261V62.77H54.6681C54.1454 62.77 53.7208 62.9333 53.3941 63.26C53.0768 63.5773 52.9181 64.0347 52.9181 64.632V69H51.3361ZM58.6764 69.168C58.163 69.168 57.7104 69.0793 57.3184 68.902C56.9357 68.7153 56.637 68.4633 56.4224 68.146C56.2077 67.8193 56.1004 67.4367 56.1004 66.998C56.1004 66.5873 56.189 66.2187 56.3664 65.892C56.553 65.5653 56.8377 65.29 57.2204 65.066C57.603 64.842 58.0837 64.6833 58.6624 64.59L61.2944 64.156V65.402L58.9704 65.808C58.5504 65.8827 58.2424 66.018 58.0464 66.214C57.8504 66.4007 57.7524 66.6433 57.7524 66.942C57.7524 67.2313 57.8597 67.4693 58.0744 67.656C58.2984 67.8333 58.583 67.922 58.9284 67.922C59.3577 67.922 59.731 67.8287 60.0484 67.642C60.375 67.4553 60.627 67.208 60.8044 66.9C60.9817 66.5827 61.0704 66.2327 61.0704 65.85V63.904C61.0704 63.5307 60.9304 63.2273 60.6504 62.994C60.3797 62.7513 60.0157 62.63 59.5584 62.63C59.1384 62.63 58.7697 62.742 58.4524 62.966C58.1444 63.1807 57.9157 63.4607 57.7664 63.806L56.4504 63.148C56.5904 62.7747 56.819 62.448 57.1364 62.168C57.4537 61.8787 57.8224 61.6547 58.2424 61.496C58.6717 61.3373 59.1244 61.258 59.6004 61.258C60.1977 61.258 60.725 61.37 61.1824 61.594C61.649 61.818 62.0084 62.1307 62.2604 62.532C62.5217 62.924 62.6524 63.3813 62.6524 63.904V69H61.1404V67.628L61.4624 67.67C61.285 67.978 61.0564 68.244 60.7764 68.468C60.5057 68.692 60.193 68.8647 59.8384 68.986C59.493 69.1073 59.1057 69.168 58.6764 69.168ZM64.5021 69V61.426H66.0841V69H64.5021ZM64.5021 60.39V58.57H66.0841V60.39H64.5021ZM67.9338 69V61.426H69.4458V62.91L69.2638 62.714C69.4504 62.238 69.7491 61.8787 70.1598 61.636C70.5704 61.384 71.0464 61.258 71.5878 61.258C72.1478 61.258 72.6424 61.3793 73.0718 61.622C73.5011 61.8647 73.8371 62.2007 74.0798 62.63C74.3224 63.0593 74.4438 63.554 74.4438 64.114V69H72.8758V64.534C72.8758 64.1513 72.8058 63.8293 72.6658 63.568C72.5258 63.2973 72.3251 63.092 72.0638 62.952C71.8118 62.8027 71.5224 62.728 71.1958 62.728C70.8691 62.728 70.5751 62.8027 70.3138 62.952C70.0618 63.092 69.8658 63.2973 69.7258 63.568C69.5858 63.8387 69.5158 64.1607 69.5158 64.534V69H67.9338ZM78.9369 69.168C78.1622 69.168 77.4809 68.9767 76.8929 68.594C76.3142 68.2113 75.9082 67.698 75.6749 67.054L76.8929 66.48C77.0982 66.9093 77.3782 67.25 77.7329 67.502C78.0969 67.754 78.4982 67.88 78.9369 67.88C79.3102 67.88 79.6136 67.796 79.8469 67.628C80.0802 67.46 80.1969 67.2313 80.1969 66.942C80.1969 66.7553 80.1456 66.606 80.0429 66.494C79.9402 66.3727 79.8096 66.2747 79.6509 66.2C79.5016 66.1253 79.3476 66.0693 79.1889 66.032L77.9989 65.696C77.3456 65.5093 76.8556 65.2293 76.5289 64.856C76.2116 64.4733 76.0529 64.03 76.0529 63.526C76.0529 63.0687 76.1696 62.672 76.4029 62.336C76.6362 61.9907 76.9582 61.7247 77.3689 61.538C77.7796 61.3513 78.2416 61.258 78.7549 61.258C79.4456 61.258 80.0616 61.4307 80.6029 61.776C81.1442 62.112 81.5269 62.5833 81.7509 63.19L80.5329 63.764C80.3836 63.4 80.1456 63.1107 79.8189 62.896C79.5016 62.6813 79.1422 62.574 78.7409 62.574C78.3956 62.574 78.1202 62.658 77.9149 62.826C77.7096 62.9847 77.6069 63.1947 77.6069 63.456C77.6069 63.6333 77.6536 63.7827 77.7469 63.904C77.8402 64.016 77.9616 64.1093 78.1109 64.184C78.2602 64.2493 78.4142 64.3053 78.5729 64.352L79.8049 64.716C80.4302 64.8933 80.9109 65.1733 81.2469 65.556C81.5829 65.9293 81.7509 66.3773 81.7509 66.9C81.7509 67.348 81.6296 67.7447 81.3869 68.09C81.1536 68.426 80.8269 68.692 80.4069 68.888C79.9869 69.0747 79.4969 69.168 78.9369 69.168Z" fill="white"/>
<path d="M27.6702 89.12C27.2702 89.12 26.8936 89.0467 26.5402 88.9C26.1936 88.7533 25.8936 88.5467 25.6402 88.28C25.3936 88.0133 25.2169 87.7 25.1102 87.34L26.1102 86.96C26.2436 87.3133 26.4469 87.5867 26.7202 87.78C26.9936 87.9733 27.3102 88.07 27.6702 88.07C27.9636 88.07 28.2169 88.0133 28.4302 87.9C28.6502 87.7867 28.8202 87.6267 28.9402 87.42C29.0669 87.2133 29.1302 86.9633 29.1302 86.67C29.1302 86.3833 29.0669 86.1367 28.9402 85.93C28.8202 85.7233 28.6502 85.5667 28.4302 85.46C28.2169 85.3533 27.9636 85.3 27.6702 85.3C27.5502 85.3 27.4269 85.31 27.3002 85.33C27.1802 85.35 27.0736 85.3767 26.9802 85.41L26.7202 84.86L28.6802 82.55H25.5102V81.55H30.0002V82.5L28.0802 84.8L28.0502 84.42C28.4969 84.4267 28.8902 84.5267 29.2302 84.72C29.5702 84.9067 29.8336 85.1667 30.0202 85.5C30.2136 85.8267 30.3102 86.2067 30.3102 86.64C30.3102 87.1067 30.1969 87.53 29.9702 87.91C29.7436 88.2833 29.4302 88.58 29.0302 88.8C28.6369 89.0133 28.1836 89.12 27.6702 89.12ZM33.3716 89V81.55H36.0816C36.5816 81.55 37.0216 81.6433 37.4016 81.83C37.7882 82.01 38.0882 82.2767 38.3016 82.63C38.5149 82.9767 38.6216 83.3933 38.6216 83.88C38.6216 84.36 38.5116 84.7733 38.2916 85.12C38.0782 85.4667 37.7816 85.7333 37.4016 85.92C37.0216 86.1067 36.5816 86.2 36.0816 86.2H34.5516V89H33.3716ZM34.5516 85.15H36.1116C36.3782 85.15 36.6116 85.0967 36.8116 84.99C37.0116 84.8833 37.1682 84.7367 37.2816 84.55C37.3949 84.3567 37.4516 84.13 37.4516 83.87C37.4516 83.61 37.3949 83.3867 37.2816 83.2C37.1682 83.0067 37.0116 82.86 36.8116 82.76C36.6116 82.6533 36.3782 82.6 36.1116 82.6H34.5516V85.15ZM42.0711 89.12C41.5311 89.12 41.0511 88.9967 40.6311 88.75C40.2178 88.4967 39.8944 88.1567 39.6611 87.73C39.4278 87.2967 39.3111 86.8133 39.3111 86.28C39.3111 85.7333 39.4278 85.25 39.6611 84.83C39.9011 84.41 40.2211 84.08 40.6211 83.84C41.0211 83.5933 41.4744 83.47 41.9811 83.47C42.3878 83.47 42.7511 83.54 43.0711 83.68C43.3911 83.82 43.6611 84.0133 43.8811 84.26C44.1011 84.5 44.2678 84.7767 44.3811 85.09C44.5011 85.4033 44.5611 85.7367 44.5611 86.09C44.5611 86.1767 44.5578 86.2667 44.5511 86.36C44.5444 86.4533 44.5311 86.54 44.5111 86.62H40.2011V85.72H43.8711L43.3311 86.13C43.3978 85.8033 43.3744 85.5133 43.2611 85.26C43.1544 85 42.9878 84.7967 42.7611 84.65C42.5411 84.4967 42.2811 84.42 41.9811 84.42C41.6811 84.42 41.4144 84.4967 41.1811 84.65C40.9478 84.7967 40.7678 85.01 40.6411 85.29C40.5144 85.5633 40.4644 85.8967 40.4911 86.29C40.4578 86.6567 40.5078 86.9767 40.6411 87.25C40.7811 87.5233 40.9744 87.7367 41.2211 87.89C41.4744 88.0433 41.7611 88.12 42.0811 88.12C42.4078 88.12 42.6844 88.0467 42.9111 87.9C43.1444 87.7533 43.3278 87.5633 43.4611 87.33L44.3811 87.78C44.2744 88.0333 44.1078 88.2633 43.8811 88.47C43.6611 88.67 43.3944 88.83 43.0811 88.95C42.7744 89.0633 42.4378 89.12 42.0711 89.12ZM48.2039 89.12C47.6639 89.12 47.1839 88.9967 46.7639 88.75C46.3506 88.4967 46.0272 88.1567 45.7939 87.73C45.5606 87.2967 45.4439 86.8133 45.4439 86.28C45.4439 85.7333 45.5606 85.25 45.7939 84.83C46.0339 84.41 46.3539 84.08 46.7539 83.84C47.1539 83.5933 47.6072 83.47 48.1139 83.47C48.5206 83.47 48.8839 83.54 49.2039 83.68C49.5239 83.82 49.7939 84.0133 50.0139 84.26C50.2339 84.5 50.4006 84.7767 50.5139 85.09C50.6339 85.4033 50.6939 85.7367 50.6939 86.09C50.6939 86.1767 50.6906 86.2667 50.6839 86.36C50.6772 86.4533 50.6639 86.54 50.6439 86.62H46.3339V85.72H50.0039L49.4639 86.13C49.5306 85.8033 49.5072 85.5133 49.3939 85.26C49.2872 85 49.1206 84.7967 48.8939 84.65C48.6739 84.4967 48.4139 84.42 48.1139 84.42C47.8139 84.42 47.5472 84.4967 47.3139 84.65C47.0806 84.7967 46.9006 85.01 46.7739 85.29C46.6472 85.5633 46.5972 85.8967 46.6239 86.29C46.5906 86.6567 46.6406 86.9767 46.7739 87.25C46.9139 87.5233 47.1072 87.7367 47.3539 87.89C47.6072 88.0433 47.8939 88.12 48.2139 88.12C48.5406 88.12 48.8172 88.0467 49.0439 87.9C49.2772 87.7533 49.4606 87.5633 49.5939 87.33L50.5139 87.78C50.4072 88.0333 50.2406 88.2633 50.0139 88.47C49.7939 88.67 49.5272 88.83 49.2139 88.95C48.9072 89.0633 48.5706 89.12 48.2039 89.12ZM51.7967 89V83.59H52.8767V84.68L52.7767 84.52C52.8967 84.1667 53.0901 83.9133 53.3567 83.76C53.6234 83.6 53.9434 83.52 54.3167 83.52H54.6467V84.55H54.1767C53.8034 84.55 53.5001 84.6667 53.2667 84.9C53.0401 85.1267 52.9267 85.4533 52.9267 85.88V89H51.7967ZM57.4198 89.12C56.8664 89.12 56.3798 88.9833 55.9598 88.71C55.5464 88.4367 55.2564 88.07 55.0898 87.61L55.9598 87.2C56.1064 87.5067 56.3064 87.75 56.5598 87.93C56.8198 88.11 57.1064 88.2 57.4198 88.2C57.6864 88.2 57.9031 88.14 58.0698 88.02C58.2364 87.9 58.3198 87.7367 58.3198 87.53C58.3198 87.3967 58.2831 87.29 58.2098 87.21C58.1364 87.1233 58.0431 87.0533 57.9298 87C57.8231 86.9467 57.7131 86.9067 57.5998 86.88L56.7498 86.64C56.2831 86.5067 55.9331 86.3067 55.6998 86.04C55.4731 85.7667 55.3598 85.45 55.3598 85.09C55.3598 84.7633 55.4431 84.48 55.6098 84.24C55.7764 83.9933 56.0064 83.8033 56.2998 83.67C56.5931 83.5367 56.9231 83.47 57.2898 83.47C57.7831 83.47 58.2231 83.5933 58.6098 83.84C58.9964 84.08 59.2698 84.4167 59.4298 84.85L58.5598 85.26C58.4531 85 58.2831 84.7933 58.0498 84.64C57.8231 84.4867 57.5664 84.41 57.2798 84.41C57.0331 84.41 56.8364 84.47 56.6898 84.59C56.5431 84.7033 56.4698 84.8533 56.4698 85.04C56.4698 85.1667 56.5031 85.2733 56.5698 85.36C56.6364 85.44 56.7231 85.5067 56.8298 85.56C56.9364 85.6067 57.0464 85.6467 57.1598 85.68L58.0398 85.94C58.4864 86.0667 58.8298 86.2667 59.0698 86.54C59.3098 86.8067 59.4298 87.1267 59.4298 87.5C59.4298 87.82 59.3431 88.1033 59.1698 88.35C59.0031 88.59 58.7698 88.78 58.4698 88.92C58.1698 89.0533 57.8198 89.12 57.4198 89.12ZM61.735 89L64.355 81.55H65.815L68.435 89H67.175L66.605 87.33H63.575L62.995 89H61.735ZM63.915 86.28H66.245L64.925 82.38H65.255L63.915 86.28ZM71.2461 89.06C70.6794 89.06 70.2394 88.9 69.9261 88.58C69.6128 88.26 69.4561 87.81 69.4561 87.23V84.61H68.5061V83.59H68.6561C68.9094 83.59 69.1061 83.5167 69.2461 83.37C69.3861 83.2233 69.4561 83.0233 69.4561 82.77V82.35H70.5861V83.59H71.8161V84.61H70.5861V87.18C70.5861 87.3667 70.6161 87.5267 70.6761 87.66C70.7361 87.7867 70.8328 87.8867 70.9661 87.96C71.0994 88.0267 71.2728 88.06 71.4861 88.06C71.5394 88.06 71.5994 88.0567 71.6661 88.05C71.7328 88.0433 71.7961 88.0367 71.8561 88.03V89C71.7628 89.0133 71.6594 89.0267 71.5461 89.04C71.4328 89.0533 71.3328 89.06 71.2461 89.06ZM75.2988 89.06C74.7322 89.06 74.2922 88.9 73.9788 88.58C73.6655 88.26 73.5088 87.81 73.5088 87.23V84.61H72.5588V83.59H72.7088C72.9622 83.59 73.1588 83.5167 73.2988 83.37C73.4388 83.2233 73.5088 83.0233 73.5088 82.77V82.35H74.6388V83.59H75.8688V84.61H74.6388V87.18C74.6388 87.3667 74.6688 87.5267 74.7288 87.66C74.7888 87.7867 74.8855 87.8867 75.0188 87.96C75.1522 88.0267 75.3255 88.06 75.5388 88.06C75.5922 88.06 75.6522 88.0567 75.7188 88.05C75.7855 88.0433 75.8488 88.0367 75.9088 88.03V89C75.8155 89.0133 75.7122 89.0267 75.5988 89.04C75.4855 89.0533 75.3855 89.06 75.2988 89.06ZM79.4539 89.12C78.9139 89.12 78.4339 88.9967 78.0139 88.75C77.6006 88.4967 77.2772 88.1567 77.0439 87.73C76.8106 87.2967 76.6939 86.8133 76.6939 86.28C76.6939 85.7333 76.8106 85.25 77.0439 84.83C77.2839 84.41 77.6039 84.08 78.0039 83.84C78.4039 83.5933 78.8572 83.47 79.3639 83.47C79.7706 83.47 80.1339 83.54 80.4539 83.68C80.7739 83.82 81.0439 84.0133 81.2639 84.26C81.4839 84.5 81.6506 84.7767 81.7639 85.09C81.8839 85.4033 81.9439 85.7367 81.9439 86.09C81.9439 86.1767 81.9406 86.2667 81.9339 86.36C81.9272 86.4533 81.9139 86.54 81.8939 86.62H77.5839V85.72H81.2539L80.7139 86.13C80.7806 85.8033 80.7572 85.5133 80.6439 85.26C80.5372 85 80.3706 84.7967 80.1439 84.65C79.9239 84.4967 79.6639 84.42 79.3639 84.42C79.0639 84.42 78.7972 84.4967 78.5639 84.65C78.3306 84.7967 78.1506 85.01 78.0239 85.29C77.8972 85.5633 77.8472 85.8967 77.8739 86.29C77.8406 86.6567 77.8906 86.9767 78.0239 87.25C78.1639 87.5233 78.3572 87.7367 78.6039 87.89C78.8572 88.0433 79.1439 88.12 79.4639 88.12C79.7906 88.12 80.0672 88.0467 80.2939 87.9C80.5272 87.7533 80.7106 87.5633 80.8439 87.33L81.7639 87.78C81.6572 88.0333 81.4906 88.2633 81.2639 88.47C81.0439 88.67 80.7772 88.83 80.4639 88.95C80.1572 89.0633 79.8206 89.12 79.4539 89.12ZM83.0467 89V83.59H84.1267V84.76L83.9867 84.58C84.1001 84.2133 84.3067 83.9367 84.6067 83.75C84.9067 83.5633 85.2501 83.47 85.6367 83.47C86.0701 83.47 86.4534 83.5867 86.7867 83.82C87.1267 84.0467 87.3534 84.35 87.4667 84.73L87.1467 84.76C87.3067 84.3267 87.5501 84.0033 87.8767 83.79C88.2101 83.5767 88.5901 83.47 89.0167 83.47C89.3901 83.47 89.7267 83.5567 90.0267 83.73C90.3334 83.9033 90.5767 84.1433 90.7567 84.45C90.9367 84.7567 91.0267 85.1067 91.0267 85.5V89H89.8967V85.81C89.8967 85.5367 89.8467 85.3067 89.7467 85.12C89.6534 84.9267 89.5201 84.78 89.3467 84.68C89.1801 84.5733 88.9834 84.52 88.7567 84.52C88.5301 84.52 88.3301 84.5733 88.1567 84.68C87.9834 84.78 87.8467 84.9267 87.7467 85.12C87.6467 85.3133 87.5967 85.5433 87.5967 85.81V89H86.4767V85.81C86.4767 85.5367 86.4267 85.3067 86.3267 85.12C86.2334 84.9267 86.1001 84.78 85.9267 84.68C85.7601 84.5733 85.5601 84.52 85.3267 84.52C85.1001 84.52 84.9001 84.5733 84.7267 84.68C84.5534 84.78 84.4167 84.9267 84.3167 85.12C84.2234 85.3133 84.1767 85.5433 84.1767 85.81V89H83.0467ZM92.2362 91V83.59H93.3162V84.71L93.1862 84.45C93.3862 84.1433 93.6528 83.9033 93.9862 83.73C94.3195 83.5567 94.6995 83.47 95.1262 83.47C95.6395 83.47 96.0995 83.5933 96.5062 83.84C96.9195 84.0867 97.2428 84.4233 97.4762 84.85C97.7162 85.2767 97.8362 85.7567 97.8362 86.29C97.8362 86.8233 97.7162 87.3033 97.4762 87.73C97.2428 88.1567 96.9228 88.4967 96.5162 88.75C96.1095 88.9967 95.6462 89.12 95.1262 89.12C94.7062 89.12 94.3228 89.0333 93.9762 88.86C93.6362 88.6867 93.3728 88.4367 93.1862 88.11L93.3662 87.9V91H92.2362ZM95.0162 88.07C95.3362 88.07 95.6195 87.9933 95.8662 87.84C96.1128 87.6867 96.3062 87.4767 96.4462 87.21C96.5928 86.9367 96.6662 86.63 96.6662 86.29C96.6662 85.95 96.5928 85.6467 96.4462 85.38C96.3062 85.1133 96.1128 84.9033 95.8662 84.75C95.6195 84.5967 95.3362 84.52 95.0162 84.52C94.7028 84.52 94.4195 84.5967 94.1662 84.75C93.9195 84.9033 93.7228 85.1133 93.5762 85.38C93.4362 85.6467 93.3662 85.95 93.3662 86.29C93.3662 86.63 93.4362 86.9367 93.5762 87.21C93.7228 87.4767 93.9195 87.6867 94.1662 87.84C94.4195 87.9933 94.7028 88.07 95.0162 88.07ZM101.178 89.06C100.611 89.06 100.171 88.9 99.8577 88.58C99.5444 88.26 99.3877 87.81 99.3877 87.23V84.61H98.4377V83.59H98.5877C98.8411 83.59 99.0377 83.5167 99.1777 83.37C99.3177 83.2233 99.3877 83.0233 99.3877 82.77V82.35H100.518V83.59H101.748V84.61H100.518V87.18C100.518 87.3667 100.548 87.5267 100.608 87.66C100.668 87.7867 100.764 87.8867 100.898 87.96C101.031 88.0267 101.204 88.06 101.418 88.06C101.471 88.06 101.531 88.0567 101.598 88.05C101.664 88.0433 101.728 88.0367 101.788 88.03V89C101.694 89.0133 101.591 89.0267 101.478 89.04C101.364 89.0533 101.264 89.06 101.178 89.06ZM102.89 89V83.59H104.02V89H102.89ZM102.89 82.85V81.55H104.02V82.85H102.89ZM105.342 89V83.59H106.422V84.65L106.292 84.51C106.425 84.17 106.638 83.9133 106.932 83.74C107.225 83.56 107.565 83.47 107.952 83.47C108.352 83.47 108.705 83.5567 109.012 83.73C109.318 83.9033 109.558 84.1433 109.732 84.45C109.905 84.7567 109.992 85.11 109.992 85.51V89H108.872V85.81C108.872 85.5367 108.822 85.3067 108.722 85.12C108.622 84.9267 108.478 84.78 108.292 84.68C108.112 84.5733 107.905 84.52 107.672 84.52C107.438 84.52 107.228 84.5733 107.042 84.68C106.862 84.78 106.722 84.9267 106.622 85.12C106.522 85.3133 106.472 85.5433 106.472 85.81V89H105.342ZM113.811 91.2C113.418 91.2 113.054 91.1367 112.721 91.01C112.388 90.8833 112.101 90.7067 111.861 90.48C111.621 90.26 111.441 90 111.321 89.7L112.361 89.27C112.454 89.5233 112.624 89.7333 112.871 89.9C113.124 90.0667 113.434 90.15 113.801 90.15C114.088 90.15 114.344 90.0933 114.571 89.98C114.798 89.8733 114.978 89.7133 115.111 89.5C115.244 89.2933 115.311 89.0433 115.311 88.75V87.53L115.511 87.76C115.324 88.1067 115.064 88.37 114.731 88.55C114.404 88.73 114.034 88.82 113.621 88.82C113.121 88.82 112.671 88.7033 112.271 88.47C111.871 88.2367 111.554 87.9167 111.321 87.51C111.094 87.1033 110.981 86.6467 110.981 86.14C110.981 85.6267 111.094 85.17 111.321 84.77C111.554 84.37 111.868 84.0533 112.261 83.82C112.654 83.5867 113.104 83.47 113.611 83.47C114.024 83.47 114.391 83.56 114.711 83.74C115.038 83.9133 115.304 84.1667 115.511 84.5L115.361 84.78V83.59H116.431V88.75C116.431 89.2167 116.318 89.6333 116.091 90C115.871 90.3733 115.564 90.6667 115.171 90.88C114.778 91.0933 114.324 91.2 113.811 91.2ZM113.751 87.77C114.051 87.77 114.318 87.7 114.551 87.56C114.784 87.4133 114.968 87.22 115.101 86.98C115.241 86.7333 115.311 86.4567 115.311 86.15C115.311 85.8433 115.241 85.5667 115.101 85.32C114.961 85.0733 114.774 84.88 114.541 84.74C114.308 84.5933 114.044 84.52 113.751 84.52C113.444 84.52 113.171 84.5933 112.931 84.74C112.691 84.88 112.501 85.0733 112.361 85.32C112.228 85.56 112.161 85.8367 112.161 86.15C112.161 86.45 112.228 86.7233 112.361 86.97C112.501 87.2167 112.691 87.4133 112.931 87.56C113.171 87.7 113.444 87.77 113.751 87.77Z" fill="#BCBDBD"/>
</g>
<path d="M0.5 24C0.5 11.0213 11.0213 0.5 24 0.5H293C305.979 0.5 316.5 11.0213 316.5 24V96C316.5 108.979 305.979 119.5 293 119.5H24C11.0213 119.5 0.5 108.979 0.5 96V24Z" stroke="#0ACB7E"/>
<defs>
<clipPath id="clip0_2_25410">
<path d="M0 24C0 10.7452 10.7452 0 24 0H293C306.255 0 317 10.7452 317 24V96C317 109.255 306.255 120 293 120H24C10.7452 120 0 109.255 0 96V24Z" fill="white"/>
</clipPath>
<clipPath id="clip1_2_25410">
<path d="M16 24C16 17.3726 21.3726 12 28 12H106C112.627 12 118 17.3726 118 24C118 30.6274 112.627 36 106 36H28C21.3726 36 16 30.6274 16 24Z" fill="white"/>
</clipPath>
</defs>
</svg>
