<svg width="317" height="120" viewBox="0 0 317 120" fill="none" xmlns="http://www.w3.org/2000/svg">
<g clip-path="url(#clip0_2_25318)">
<path d="M0 24C0 10.7452 10.7452 0 24 0H293C306.255 0 317 10.7452 317 24V96C317 109.255 306.255 120 293 120H24C10.7452 120 0 109.255 0 96V24Z" fill="#212121"/>
<path d="M16 28C16 21.3726 21.3726 16 28 16H93C99.6274 16 105 21.3726 105 28C105 34.6274 99.6274 40 93 40H28C21.3726 40 16 34.6274 16 28Z" fill="#EDF2FA" fill-opacity="0.1"/>
<path fill-rule="evenodd" clip-rule="evenodd" d="M33.2522 22.2709C33.2522 22.271 33.2523 22.2707 33.2522 22.2709L32.026 24.7424C31.8953 25.0101 31.6771 25.2389 31.4529 25.4063C31.2281 25.5743 30.9488 25.717 30.6613 25.7662L30.6595 25.7665L28.4347 26.139C28.4346 26.139 28.4348 26.139 28.4347 26.139C27.8142 26.2433 27.6121 26.4896 27.5654 26.6369C27.5185 26.7848 27.5419 27.104 27.9862 27.5518L29.716 29.295C29.9409 29.5216 30.0913 29.8247 30.1743 30.1167C30.2573 30.4089 30.2883 30.745 30.2193 31.0554L30.2185 31.0589L29.7233 33.2168C29.5388 34.0201 29.7254 34.3132 29.8201 34.3829C29.9153 34.4529 30.2503 34.5425 30.9554 34.1208L33.0449 32.8743C33.335 32.7042 33.6824 32.6341 34.0011 32.6341C34.3192 32.6341 34.6668 32.704 34.9555 32.8764C34.9554 32.8763 34.9556 32.8764 34.9555 32.8764L37.0406 34.1203C37.0405 34.1202 37.0407 34.1203 37.0406 34.1203C37.7514 34.5433 38.0862 34.4541 38.1796 34.3854C38.2722 34.3174 38.4587 34.026 38.2736 33.2164L37.7776 31.0554C37.7086 30.745 37.7397 30.4089 37.8227 30.1167C37.9056 29.8247 38.056 29.5216 38.2809 29.295L40.0107 27.5518L40.012 27.5505C40.4592 27.1029 40.4813 26.7845 40.4345 26.6379C40.3873 26.4901 40.1835 26.2434 39.5625 26.1391C39.5624 26.139 39.5626 26.1391 39.5625 26.1391L37.3375 25.7665C37.0471 25.7177 36.7655 25.5756 36.5389 25.4071C36.3132 25.2393 36.0948 25.0103 35.964 24.7425L34.7368 22.2689C34.4433 21.6742 34.145 21.5544 33.9976 21.5544C33.8493 21.5544 33.5492 21.6757 33.2522 22.2709ZM35.6733 21.7989C35.3042 21.0512 34.7272 20.5 33.9976 20.5C33.2688 20.5 32.69 21.0503 32.3174 21.7974L31.0893 24.2726L31.0874 24.2765C31.0506 24.3523 30.9625 24.4602 30.8298 24.5594C30.6975 24.6582 30.5692 24.7123 30.4869 24.7266C30.4866 24.7266 30.4864 24.7267 30.4862 24.7267L28.263 25.0989C27.4608 25.2337 26.7871 25.6271 26.5687 26.3162C26.3505 27.0048 26.6724 27.7188 27.2464 28.2973L28.9762 30.0406C29.0443 30.1092 29.1206 30.2385 29.1684 30.4069C29.216 30.5742 29.22 30.726 29.1987 30.8234C29.1986 30.8239 29.1985 30.8243 29.1984 30.8248L28.7039 32.9792C28.7039 32.9792 28.7039 32.9792 28.7039 32.9792C28.4978 33.877 28.5693 34.7683 29.2034 35.2346C29.8372 35.7007 30.7018 35.4986 31.4894 35.0275L33.571 33.7857C33.5715 33.7854 33.5719 33.7852 33.5723 33.7849C33.666 33.7305 33.8202 33.6885 34.0011 33.6885C34.1833 33.6885 34.3344 33.731 34.4223 33.7835L36.508 35.0278C37.2966 35.4972 38.1623 35.703 38.7959 35.2374C39.4305 34.7712 39.4986 33.8782 39.2931 32.9797L38.7986 30.8248C38.7985 30.8243 38.7984 30.8239 38.7983 30.8234C38.777 30.726 38.781 30.5742 38.8285 30.4069C38.8764 30.2385 38.9526 30.1092 39.0207 30.0406L40.7493 28.2986C40.7495 28.2984 40.7497 28.2981 40.75 28.2979C41.3276 27.7194 41.6505 27.0048 41.4306 26.3152C41.2109 25.6266 40.5359 25.2336 39.7342 25.099L37.5092 24.7264C37.5091 24.7264 37.5093 24.7265 37.5092 24.7264M35.6733 21.7989C35.6732 21.7987 35.6734 21.799 35.6733 21.7989V21.7989Z" fill="white"/>
<path d="M48.72 32V24.55H51.5C52.0067 24.55 52.4533 24.6433 52.84 24.83C53.2333 25.01 53.54 25.2767 53.76 25.63C53.98 25.9767 54.09 26.4 54.09 26.9C54.09 27.3933 53.9767 27.8167 53.75 28.17C53.53 28.5167 53.2267 28.7833 52.84 28.97C52.4533 29.1567 52.0067 29.25 51.5 29.25H50.08V32H48.72ZM50.08 28.05H51.52C51.7667 28.05 51.98 28.0033 52.16 27.91C52.34 27.81 52.48 27.6733 52.58 27.5C52.68 27.3267 52.73 27.1267 52.73 26.9C52.73 26.6667 52.68 26.4667 52.58 26.3C52.48 26.1267 52.34 25.9933 52.16 25.9C51.98 25.8 51.7667 25.75 51.52 25.75H50.08V28.05ZM55.6044 32V24.55H56.9644V27.8H60.1344V24.55H61.5044V32H60.1344V29H56.9644V32H55.6044ZM65.2384 32V28.7L62.7284 24.55H64.2784L66.1984 27.79H65.6484L67.5584 24.55H69.1084L66.6084 28.69V32H65.2384ZM72.6972 32.12C72.2239 32.12 71.7839 32.0333 71.3772 31.86C70.9772 31.6867 70.6305 31.4467 70.3372 31.14C70.0505 30.8267 69.8405 30.4633 69.7072 30.05L70.8372 29.56C71.0172 29.9867 71.2772 30.3233 71.6172 30.57C71.9572 30.81 72.3405 30.93 72.7672 30.93C73.0072 30.93 73.2139 30.8933 73.3872 30.82C73.5672 30.74 73.7039 30.6333 73.7972 30.5C73.8972 30.3667 73.9472 30.2067 73.9472 30.02C73.9472 29.8 73.8805 29.62 73.7472 29.48C73.6205 29.3333 73.4272 29.22 73.1672 29.14L71.7372 28.68C71.1572 28.5 70.7205 28.23 70.4272 27.87C70.1339 27.51 69.9872 27.0867 69.9872 26.6C69.9872 26.1733 70.0905 25.7967 70.2972 25.47C70.5105 25.1433 70.8039 24.89 71.1772 24.71C71.5572 24.5233 71.9905 24.43 72.4772 24.43C72.9239 24.43 73.3339 24.51 73.7072 24.67C74.0805 24.8233 74.4005 25.04 74.6672 25.32C74.9405 25.5933 75.1439 25.9167 75.2772 26.29L74.1572 26.79C74.0105 26.4167 73.7905 26.13 73.4972 25.93C73.2039 25.7233 72.8639 25.62 72.4772 25.62C72.2505 25.62 72.0505 25.66 71.8772 25.74C71.7039 25.8133 71.5672 25.92 71.4672 26.06C71.3739 26.1933 71.3272 26.3533 71.3272 26.54C71.3272 26.7467 71.3939 26.93 71.5272 27.09C71.6605 27.2433 71.8639 27.3633 72.1372 27.45L73.5072 27.88C74.1005 28.0733 74.5439 28.34 74.8372 28.68C75.1372 29.02 75.2872 29.44 75.2872 29.94C75.2872 30.3667 75.1772 30.7433 74.9572 31.07C74.7372 31.3967 74.4339 31.6533 74.0472 31.84C73.6605 32.0267 73.2105 32.12 72.6972 32.12ZM76.9118 32V24.55H78.2718V32H76.9118ZM83.6048 32.12C83.0714 32.12 82.5781 32.0233 82.1248 31.83C81.6781 31.6367 81.2848 31.3667 80.9448 31.02C80.6114 30.6733 80.3514 30.2667 80.1648 29.8C79.9781 29.3333 79.8848 28.8233 79.8848 28.27C79.8848 27.7167 79.9748 27.2067 80.1548 26.74C80.3414 26.2667 80.6014 25.86 80.9348 25.52C81.2748 25.1733 81.6714 24.9067 82.1248 24.72C82.5781 24.5267 83.0714 24.43 83.6048 24.43C84.1381 24.43 84.6148 24.52 85.0348 24.7C85.4614 24.88 85.8214 25.12 86.1148 25.42C86.4081 25.7133 86.6181 26.0367 86.7448 26.39L85.5248 26.96C85.3848 26.5867 85.1481 26.28 84.8148 26.04C84.4814 25.7933 84.0781 25.67 83.6048 25.67C83.1381 25.67 82.7248 25.78 82.3648 26C82.0114 26.22 81.7348 26.5233 81.5348 26.91C81.3414 27.2967 81.2448 27.75 81.2448 28.27C81.2448 28.79 81.3414 29.2467 81.5348 29.64C81.7348 30.0267 82.0114 30.33 82.3648 30.55C82.7248 30.77 83.1381 30.88 83.6048 30.88C84.0781 30.88 84.4814 30.76 84.8148 30.52C85.1481 30.2733 85.3848 29.9633 85.5248 29.59L86.7448 30.16C86.6181 30.5133 86.4081 30.84 86.1148 31.14C85.8214 31.4333 85.4614 31.67 85.0348 31.85C84.6148 32.03 84.1381 32.12 83.6048 32.12ZM90.9089 32.12C90.4356 32.12 89.9956 32.0333 89.5889 31.86C89.1889 31.6867 88.8422 31.4467 88.5489 31.14C88.2622 30.8267 88.0522 30.4633 87.9189 30.05L89.0489 29.56C89.2289 29.9867 89.4889 30.3233 89.8289 30.57C90.1689 30.81 90.5522 30.93 90.9789 30.93C91.2189 30.93 91.4256 30.8933 91.5989 30.82C91.7789 30.74 91.9156 30.6333 92.0089 30.5C92.1089 30.3667 92.1589 30.2067 92.1589 30.02C92.1589 29.8 92.0922 29.62 91.9589 29.48C91.8322 29.3333 91.6389 29.22 91.3789 29.14L89.9489 28.68C89.3689 28.5 88.9322 28.23 88.6389 27.87C88.3456 27.51 88.1989 27.0867 88.1989 26.6C88.1989 26.1733 88.3022 25.7967 88.5089 25.47C88.7222 25.1433 89.0156 24.89 89.3889 24.71C89.7689 24.5233 90.2022 24.43 90.6889 24.43C91.1356 24.43 91.5456 24.51 91.9189 24.67C92.2922 24.8233 92.6122 25.04 92.8789 25.32C93.1522 25.5933 93.3556 25.9167 93.4889 26.29L92.3689 26.79C92.2222 26.4167 92.0022 26.13 91.7089 25.93C91.4156 25.7233 91.0756 25.62 90.6889 25.62C90.4622 25.62 90.2622 25.66 90.0889 25.74C89.9156 25.8133 89.7789 25.92 89.6789 26.06C89.5856 26.1933 89.5389 26.3533 89.5389 26.54C89.5389 26.7467 89.6056 26.93 89.7389 27.09C89.8722 27.2433 90.0756 27.3633 90.3489 27.45L91.7189 27.88C92.3122 28.0733 92.7556 28.34 93.0489 28.68C93.3489 29.02 93.4989 29.44 93.4989 29.94C93.4989 30.3667 93.3889 30.7433 93.1689 31.07C92.9489 31.3967 92.6456 31.6533 92.2589 31.84C91.8722 32.0267 91.4222 32.12 90.9089 32.12Z" fill="white"/>
<path d="M21.964 73.168C21.2267 73.168 20.5407 73.0327 19.906 72.762C19.2807 72.4913 18.73 72.118 18.254 71.642C17.7873 71.1567 17.4233 70.5873 17.162 69.934C16.9007 69.2807 16.77 68.562 16.77 67.778C16.77 67.0033 16.896 66.2893 17.148 65.636C17.4093 64.9733 17.7733 64.404 18.24 63.928C18.7067 63.4427 19.2527 63.0693 19.878 62.808C20.5033 62.5373 21.1893 62.402 21.936 62.402C22.6733 62.402 23.3313 62.528 23.91 62.78C24.498 63.032 24.9927 63.3633 25.394 63.774C25.7953 64.1753 26.0847 64.614 26.262 65.09L24.792 65.804C24.5773 65.2347 24.2227 64.7773 23.728 64.432C23.2333 64.0773 22.636 63.9 21.936 63.9C21.2453 63.9 20.634 64.0633 20.102 64.39C19.57 64.7167 19.1547 65.1693 18.856 65.748C18.5667 66.3267 18.422 67.0033 18.422 67.778C18.422 68.5527 18.5713 69.234 18.87 69.822C19.178 70.4007 19.598 70.8533 20.13 71.18C20.662 71.4973 21.2733 71.656 21.964 71.656C22.5427 71.656 23.07 71.5393 23.546 71.306C24.0313 71.0633 24.4187 70.7273 24.708 70.298C24.9973 69.8593 25.142 69.3507 25.142 68.772V68.058L25.884 68.73H21.936V67.33H26.78V68.31C26.78 69.0753 26.6493 69.7613 26.388 70.368C26.1267 70.9653 25.772 71.474 25.324 71.894C24.876 72.314 24.3627 72.6313 23.784 72.846C23.2053 73.0607 22.5987 73.168 21.964 73.168ZM28.3127 73V65.426H29.8247V66.952L29.6847 66.728C29.8527 66.2333 30.1233 65.8787 30.4967 65.664C30.87 65.44 31.318 65.328 31.8407 65.328H32.3027V66.77H31.6447C31.122 66.77 30.6973 66.9333 30.3707 67.26C30.0533 67.5773 29.8947 68.0347 29.8947 68.632V73H28.3127ZM35.6529 73.168C35.1396 73.168 34.6869 73.0793 34.2949 72.902C33.9123 72.7153 33.6136 72.4633 33.3989 72.146C33.1843 71.8193 33.0769 71.4367 33.0769 70.998C33.0769 70.5873 33.1656 70.2187 33.3429 69.892C33.5296 69.5653 33.8143 69.29 34.1969 69.066C34.5796 68.842 35.0603 68.6833 35.6389 68.59L38.2709 68.156V69.402L35.9469 69.808C35.5269 69.8827 35.2189 70.018 35.0229 70.214C34.8269 70.4007 34.7289 70.6433 34.7289 70.942C34.7289 71.2313 34.8363 71.4693 35.0509 71.656C35.2749 71.8333 35.5596 71.922 35.9049 71.922C36.3343 71.922 36.7076 71.8287 37.0249 71.642C37.3516 71.4553 37.6036 71.208 37.7809 70.9C37.9583 70.5827 38.0469 70.2327 38.0469 69.85V67.904C38.0469 67.5307 37.9069 67.2273 37.6269 66.994C37.3563 66.7513 36.9923 66.63 36.5349 66.63C36.1149 66.63 35.7463 66.742 35.4289 66.966C35.1209 67.1807 34.8923 67.4607 34.7429 67.806L33.4269 67.148C33.5669 66.7747 33.7956 66.448 34.1129 66.168C34.4303 65.8787 34.7989 65.6547 35.2189 65.496C35.6483 65.3373 36.1009 65.258 36.5769 65.258C37.1743 65.258 37.7016 65.37 38.1589 65.594C38.6256 65.818 38.9849 66.1307 39.2369 66.532C39.4983 66.924 39.6289 67.3813 39.6289 67.904V73H38.1169V71.628L38.4389 71.67C38.2616 71.978 38.0329 72.244 37.7529 72.468C37.4823 72.692 37.1696 72.8647 36.8149 72.986C36.4696 73.1073 36.0823 73.168 35.6529 73.168ZM43.54 73L40.572 65.426H42.294L44.576 71.6H43.946L46.228 65.426H47.964L44.982 73H43.54ZM49.0392 73V65.426H50.6212V73H49.0392ZM49.0392 64.39V62.57H50.6212V64.39H49.0392ZM55.7469 73.084C54.9535 73.084 54.3375 72.86 53.8989 72.412C53.4602 71.964 53.2409 71.334 53.2409 70.522V66.854H51.9109V65.426H52.1209C52.4755 65.426 52.7509 65.3233 52.9469 65.118C53.1429 64.9127 53.2409 64.6327 53.2409 64.278V63.69H54.8229V65.426H56.5449V66.854H54.8229V70.452C54.8229 70.7133 54.8649 70.9373 54.9489 71.124C55.0329 71.3013 55.1682 71.4413 55.3549 71.544C55.5415 71.6373 55.7842 71.684 56.0829 71.684C56.1575 71.684 56.2415 71.6793 56.3349 71.67C56.4282 71.6607 56.5169 71.6513 56.6009 71.642V73C56.4702 73.0187 56.3255 73.0373 56.1669 73.056C56.0082 73.0747 55.8682 73.084 55.7469 73.084ZM58.8167 76.094C58.63 76.094 58.4434 76.0753 58.2567 76.038C58.0794 76.01 57.916 75.9633 57.7667 75.898V74.54C57.8787 74.568 58.014 74.5913 58.1727 74.61C58.3314 74.638 58.4854 74.652 58.6347 74.652C59.0734 74.652 59.3954 74.554 59.6007 74.358C59.8154 74.1713 60.0067 73.8773 60.1747 73.476L60.6787 72.328L60.6507 73.658L57.3747 65.426H59.0687L61.4907 71.74H60.9167L63.3247 65.426H65.0327L61.6867 73.826C61.5094 74.274 61.2854 74.666 61.0147 75.002C60.7534 75.3473 60.4407 75.6133 60.0767 75.8C59.722 75.996 59.302 76.094 58.8167 76.094ZM73.6027 73.168C72.8653 73.168 72.1793 73.0327 71.5447 72.762C70.9193 72.4913 70.3687 72.118 69.8927 71.642C69.426 71.1567 69.062 70.5873 68.8007 69.934C68.5393 69.2807 68.4087 68.562 68.4087 67.778C68.4087 67.0033 68.5347 66.2893 68.7867 65.636C69.048 64.9733 69.412 64.404 69.8787 63.928C70.3453 63.4427 70.8913 63.0693 71.5167 62.808C72.142 62.5373 72.828 62.402 73.5747 62.402C74.312 62.402 74.97 62.528 75.5487 62.78C76.1367 63.032 76.6313 63.3633 77.0327 63.774C77.434 64.1753 77.7233 64.614 77.9007 65.09L76.4307 65.804C76.216 65.2347 75.8613 64.7773 75.3667 64.432C74.872 64.0773 74.2747 63.9 73.5747 63.9C72.884 63.9 72.2727 64.0633 71.7407 64.39C71.2087 64.7167 70.7933 65.1693 70.4947 65.748C70.2053 66.3267 70.0607 67.0033 70.0607 67.778C70.0607 68.5527 70.21 69.234 70.5087 69.822C70.8167 70.4007 71.2367 70.8533 71.7687 71.18C72.3007 71.4973 72.912 71.656 73.6027 71.656C74.1813 71.656 74.7087 71.5393 75.1847 71.306C75.67 71.0633 76.0573 70.7273 76.3467 70.298C76.636 69.8593 76.7807 69.3507 76.7807 68.772V68.058L77.5227 68.73H73.5747V67.33H78.4187V68.31C78.4187 69.0753 78.288 69.7613 78.0267 70.368C77.7653 70.9653 77.4107 71.474 76.9627 71.894C76.5147 72.314 76.0013 72.6313 75.4227 72.846C74.844 73.0607 74.2373 73.168 73.6027 73.168ZM82.6533 73.168C82.084 73.168 81.5847 73.042 81.1553 72.79C80.726 72.5287 80.39 72.1693 80.1473 71.712C79.914 71.2453 79.7973 70.7087 79.7973 70.102V65.426H81.3793V69.962C81.3793 70.3073 81.4493 70.6107 81.5893 70.872C81.7293 71.1333 81.9253 71.3387 82.1773 71.488C82.4293 71.628 82.7187 71.698 83.0453 71.698C83.3813 71.698 83.6753 71.6233 83.9273 71.474C84.1793 71.3247 84.3753 71.1147 84.5153 70.844C84.6647 70.5733 84.7393 70.256 84.7393 69.892V65.426H86.3073V73H84.8093V71.516L84.9773 71.712C84.8 72.1787 84.506 72.538 84.0953 72.79C83.6847 73.042 83.204 73.168 82.6533 73.168ZM88.1545 73V65.426H89.6665V66.952L89.5265 66.728C89.6945 66.2333 89.9651 65.8787 90.3385 65.664C90.7118 65.44 91.1598 65.328 91.6825 65.328H92.1445V66.77H91.4865C90.9638 66.77 90.5391 66.9333 90.2125 67.26C89.8951 67.5773 89.7365 68.0347 89.7365 68.632V73H88.1545ZM95.9287 73.168C95.3594 73.168 94.8601 73.042 94.4307 72.79C94.0014 72.5287 93.6654 72.1693 93.4227 71.712C93.1894 71.2453 93.0727 70.7087 93.0727 70.102V65.426H94.6547V69.962C94.6547 70.3073 94.7247 70.6107 94.8647 70.872C95.0047 71.1333 95.2007 71.3387 95.4527 71.488C95.7047 71.628 95.9941 71.698 96.3207 71.698C96.6567 71.698 96.9507 71.6233 97.2027 71.474C97.4547 71.3247 97.6507 71.1147 97.7907 70.844C97.9401 70.5733 98.0147 70.256 98.0147 69.892V65.426H99.5827V73H98.0847V71.516L98.2527 71.712C98.0754 72.1787 97.7814 72.538 97.3707 72.79C96.9601 73.042 96.4794 73.168 95.9287 73.168ZM104.23 73.168C103.455 73.168 102.774 72.9767 102.186 72.594C101.607 72.2113 101.201 71.698 100.968 71.054L102.186 70.48C102.391 70.9093 102.671 71.25 103.026 71.502C103.39 71.754 103.791 71.88 104.23 71.88C104.603 71.88 104.907 71.796 105.14 71.628C105.373 71.46 105.49 71.2313 105.49 70.942C105.49 70.7553 105.439 70.606 105.336 70.494C105.233 70.3727 105.103 70.2747 104.944 70.2C104.795 70.1253 104.641 70.0693 104.482 70.032L103.292 69.696C102.639 69.5093 102.149 69.2293 101.822 68.856C101.505 68.4733 101.346 68.03 101.346 67.526C101.346 67.0687 101.463 66.672 101.696 66.336C101.929 65.9907 102.251 65.7247 102.662 65.538C103.073 65.3513 103.535 65.258 104.048 65.258C104.739 65.258 105.355 65.4307 105.896 65.776C106.437 66.112 106.82 66.5833 107.044 67.19L105.826 67.764C105.677 67.4 105.439 67.1107 105.112 66.896C104.795 66.6813 104.435 66.574 104.034 66.574C103.689 66.574 103.413 66.658 103.208 66.826C103.003 66.9847 102.9 67.1947 102.9 67.456C102.9 67.6333 102.947 67.7827 103.04 67.904C103.133 68.016 103.255 68.1093 103.404 68.184C103.553 68.2493 103.707 68.3053 103.866 68.352L105.098 68.716C105.723 68.8933 106.204 69.1733 106.54 69.556C106.876 69.9293 107.044 70.3773 107.044 70.9C107.044 71.348 106.923 71.7447 106.68 72.09C106.447 72.426 106.12 72.692 105.7 72.888C105.28 73.0747 104.79 73.168 104.23 73.168Z" fill="white"/>
<path d="M19.94 93V91.32H16.39V90.34L19.89 85.55H21.06V90.34H22.09V91.32H21.06V93H19.94ZM17.26 90.77L17.07 90.34H19.94V86.49L20.26 86.59L17.26 90.77ZM24.8729 93V87.59H25.9529V88.65L25.8229 88.51C25.9562 88.17 26.1696 87.9133 26.4629 87.74C26.7562 87.56 27.0962 87.47 27.4829 87.47C27.8829 87.47 28.2362 87.5567 28.5429 87.73C28.8496 87.9033 29.0896 88.1433 29.2629 88.45C29.4362 88.7567 29.5229 89.11 29.5229 89.51V93H28.4029V89.81C28.4029 89.5367 28.3529 89.3067 28.2529 89.12C28.1529 88.9267 28.0096 88.78 27.8229 88.68C27.6429 88.5733 27.4362 88.52 27.2029 88.52C26.9696 88.52 26.7596 88.5733 26.5729 88.68C26.3929 88.78 26.2529 88.9267 26.1529 89.12C26.0529 89.3133 26.0029 89.5433 26.0029 89.81V93H24.8729ZM33.2723 93.12C32.7323 93.12 32.2523 92.9967 31.8323 92.75C31.4189 92.4967 31.0956 92.1567 30.8623 91.73C30.6289 91.2967 30.5123 90.8133 30.5123 90.28C30.5123 89.7333 30.6289 89.25 30.8623 88.83C31.1023 88.41 31.4223 88.08 31.8223 87.84C32.2223 87.5933 32.6756 87.47 33.1823 87.47C33.5889 87.47 33.9523 87.54 34.2723 87.68C34.5923 87.82 34.8623 88.0133 35.0823 88.26C35.3023 88.5 35.4689 88.7767 35.5823 89.09C35.7023 89.4033 35.7623 89.7367 35.7623 90.09C35.7623 90.1767 35.7589 90.2667 35.7523 90.36C35.7456 90.4533 35.7323 90.54 35.7123 90.62H31.4023V89.72H35.0723L34.5323 90.13C34.5989 89.8033 34.5756 89.5133 34.4623 89.26C34.3556 89 34.1889 88.7967 33.9623 88.65C33.7423 88.4967 33.4823 88.42 33.1823 88.42C32.8823 88.42 32.6156 88.4967 32.3823 88.65C32.1489 88.7967 31.9689 89.01 31.8423 89.29C31.7156 89.5633 31.6656 89.8967 31.6923 90.29C31.6589 90.6567 31.7089 90.9767 31.8423 91.25C31.9823 91.5233 32.1756 91.7367 32.4223 91.89C32.6756 92.0433 32.9623 92.12 33.2823 92.12C33.6089 92.12 33.8856 92.0467 34.1123 91.9C34.3456 91.7533 34.5289 91.5633 34.6623 91.33L35.5823 91.78C35.4756 92.0333 35.3089 92.2633 35.0823 92.47C34.8623 92.67 34.5956 92.83 34.2823 92.95C33.9756 93.0633 33.6389 93.12 33.2723 93.12ZM38.1751 93L36.3151 87.59H37.5151L38.9351 91.9H38.5151L39.9651 87.59H40.9951L42.4351 91.9H42.0151L43.4451 87.59H44.6451L42.7751 93H41.7551L40.2951 88.59H40.6651L39.2051 93H38.1751ZM47.1678 93V87.59H48.2478V88.76L48.1078 88.58C48.2211 88.2133 48.4278 87.9367 48.7278 87.75C49.0278 87.5633 49.3711 87.47 49.7578 87.47C50.1911 87.47 50.5745 87.5867 50.9078 87.82C51.2478 88.0467 51.4745 88.35 51.5878 88.73L51.2678 88.76C51.4278 88.3267 51.6711 88.0033 51.9978 87.79C52.3311 87.5767 52.7111 87.47 53.1378 87.47C53.5111 87.47 53.8478 87.5567 54.1478 87.73C54.4545 87.9033 54.6978 88.1433 54.8778 88.45C55.0578 88.7567 55.1478 89.1067 55.1478 89.5V93H54.0178V89.81C54.0178 89.5367 53.9678 89.3067 53.8678 89.12C53.7745 88.9267 53.6411 88.78 53.4678 88.68C53.3011 88.5733 53.1045 88.52 52.8778 88.52C52.6511 88.52 52.4511 88.5733 52.2778 88.68C52.1045 88.78 51.9678 88.9267 51.8678 89.12C51.7678 89.3133 51.7178 89.5433 51.7178 89.81V93H50.5978V89.81C50.5978 89.5367 50.5478 89.3067 50.4478 89.12C50.3545 88.9267 50.2211 88.78 50.0478 88.68C49.8811 88.5733 49.6811 88.52 49.4478 88.52C49.2211 88.52 49.0211 88.5733 48.8478 88.68C48.6745 88.78 48.5378 88.9267 48.4378 89.12C48.3445 89.3133 48.2978 89.5433 48.2978 89.81V93H47.1678ZM58.8973 93.12C58.3573 93.12 57.8773 92.9967 57.4573 92.75C57.0439 92.4967 56.7206 92.1567 56.4873 91.73C56.2539 91.2967 56.1373 90.8133 56.1373 90.28C56.1373 89.7333 56.2539 89.25 56.4873 88.83C56.7273 88.41 57.0473 88.08 57.4473 87.84C57.8473 87.5933 58.3006 87.47 58.8073 87.47C59.2139 87.47 59.5773 87.54 59.8973 87.68C60.2173 87.82 60.4873 88.0133 60.7073 88.26C60.9273 88.5 61.0939 88.7767 61.2073 89.09C61.3273 89.4033 61.3873 89.7367 61.3873 90.09C61.3873 90.1767 61.3839 90.2667 61.3773 90.36C61.3706 90.4533 61.3573 90.54 61.3373 90.62H57.0273V89.72H60.6973L60.1573 90.13C60.2239 89.8033 60.2006 89.5133 60.0873 89.26C59.9806 89 59.8139 88.7967 59.5873 88.65C59.3673 88.4967 59.1073 88.42 58.8073 88.42C58.5073 88.42 58.2406 88.4967 58.0073 88.65C57.7739 88.7967 57.5939 89.01 57.4673 89.29C57.3406 89.5633 57.2906 89.8967 57.3173 90.29C57.2839 90.6567 57.3339 90.9767 57.4673 91.25C57.6073 91.5233 57.8006 91.7367 58.0473 91.89C58.3006 92.0433 58.5873 92.12 58.9073 92.12C59.2339 92.12 59.5106 92.0467 59.7373 91.9C59.9706 91.7533 60.1539 91.5633 60.2873 91.33L61.2073 91.78C61.1006 92.0333 60.9339 92.2633 60.7073 92.47C60.4873 92.67 60.2206 92.83 59.9073 92.95C59.6006 93.0633 59.2639 93.12 58.8973 93.12ZM64.4901 93.12C63.9367 93.12 63.4501 92.9833 63.0301 92.71C62.6167 92.4367 62.3267 92.07 62.1601 91.61L63.0301 91.2C63.1767 91.5067 63.3767 91.75 63.6301 91.93C63.8901 92.11 64.1767 92.2 64.4901 92.2C64.7567 92.2 64.9734 92.14 65.1401 92.02C65.3067 91.9 65.3901 91.7367 65.3901 91.53C65.3901 91.3967 65.3534 91.29 65.2801 91.21C65.2067 91.1233 65.1134 91.0533 65.0001 91C64.8934 90.9467 64.7834 90.9067 64.6701 90.88L63.8201 90.64C63.3534 90.5067 63.0034 90.3067 62.7701 90.04C62.5434 89.7667 62.4301 89.45 62.4301 89.09C62.4301 88.7633 62.5134 88.48 62.6801 88.24C62.8467 87.9933 63.0767 87.8033 63.3701 87.67C63.6634 87.5367 63.9934 87.47 64.3601 87.47C64.8534 87.47 65.2934 87.5933 65.6801 87.84C66.0667 88.08 66.3401 88.4167 66.5001 88.85L65.6301 89.26C65.5234 89 65.3534 88.7933 65.1201 88.64C64.8934 88.4867 64.6367 88.41 64.3501 88.41C64.1034 88.41 63.9067 88.47 63.7601 88.59C63.6134 88.7033 63.5401 88.8533 63.5401 89.04C63.5401 89.1667 63.5734 89.2733 63.6401 89.36C63.7067 89.44 63.7934 89.5067 63.9001 89.56C64.0067 89.6067 64.1167 89.6467 64.2301 89.68L65.1101 89.94C65.5567 90.0667 65.9001 90.2667 66.1401 90.54C66.3801 90.8067 66.5001 91.1267 66.5001 91.5C66.5001 91.82 66.4134 92.1033 66.2401 92.35C66.0734 92.59 65.8401 92.78 65.5401 92.92C65.2401 93.0533 64.8901 93.12 64.4901 93.12ZM69.6073 93.12C69.0539 93.12 68.5673 92.9833 68.1473 92.71C67.7339 92.4367 67.4439 92.07 67.2773 91.61L68.1473 91.2C68.2939 91.5067 68.4939 91.75 68.7473 91.93C69.0073 92.11 69.2939 92.2 69.6073 92.2C69.8739 92.2 70.0906 92.14 70.2573 92.02C70.4239 91.9 70.5073 91.7367 70.5073 91.53C70.5073 91.3967 70.4706 91.29 70.3973 91.21C70.3239 91.1233 70.2306 91.0533 70.1173 91C70.0106 90.9467 69.9006 90.9067 69.7873 90.88L68.9373 90.64C68.4706 90.5067 68.1206 90.3067 67.8873 90.04C67.6606 89.7667 67.5473 89.45 67.5473 89.09C67.5473 88.7633 67.6306 88.48 67.7973 88.24C67.9639 87.9933 68.1939 87.8033 68.4873 87.67C68.7806 87.5367 69.1106 87.47 69.4773 87.47C69.9706 87.47 70.4106 87.5933 70.7973 87.84C71.1839 88.08 71.4573 88.4167 71.6173 88.85L70.7473 89.26C70.6406 89 70.4706 88.7933 70.2373 88.64C70.0106 88.4867 69.7539 88.41 69.4673 88.41C69.2206 88.41 69.0239 88.47 68.8773 88.59C68.7306 88.7033 68.6573 88.8533 68.6573 89.04C68.6573 89.1667 68.6906 89.2733 68.7573 89.36C68.8239 89.44 68.9106 89.5067 69.0173 89.56C69.1239 89.6067 69.2339 89.6467 69.3473 89.68L70.2273 89.94C70.6739 90.0667 71.0173 90.2667 71.2573 90.54C71.4973 90.8067 71.6173 91.1267 71.6173 91.5C71.6173 91.82 71.5306 92.1033 71.3573 92.35C71.1906 92.59 70.9573 92.78 70.6573 92.92C70.3573 93.0533 70.0073 93.12 69.6073 93.12ZM74.3445 93.12C73.9778 93.12 73.6545 93.0567 73.3745 92.93C73.1011 92.7967 72.8878 92.6167 72.7345 92.39C72.5811 92.1567 72.5045 91.8833 72.5045 91.57C72.5045 91.2767 72.5678 91.0133 72.6945 90.78C72.8278 90.5467 73.0311 90.35 73.3045 90.19C73.5778 90.03 73.9211 89.9167 74.3345 89.85L76.2145 89.54V90.43L74.5545 90.72C74.2545 90.7733 74.0345 90.87 73.8945 91.01C73.7545 91.1433 73.6845 91.3167 73.6845 91.53C73.6845 91.7367 73.7611 91.9067 73.9145 92.04C74.0745 92.1667 74.2778 92.23 74.5245 92.23C74.8311 92.23 75.0978 92.1633 75.3245 92.03C75.5578 91.8967 75.7378 91.72 75.8645 91.5C75.9911 91.2733 76.0545 91.0233 76.0545 90.75V89.36C76.0545 89.0933 75.9545 88.8767 75.7545 88.71C75.5611 88.5367 75.3011 88.45 74.9745 88.45C74.6745 88.45 74.4111 88.53 74.1845 88.69C73.9645 88.8433 73.8011 89.0433 73.6945 89.29L72.7545 88.82C72.8545 88.5533 73.0178 88.32 73.2445 88.12C73.4711 87.9133 73.7345 87.7533 74.0345 87.64C74.3411 87.5267 74.6645 87.47 75.0045 87.47C75.4311 87.47 75.8078 87.55 76.1345 87.71C76.4678 87.87 76.7245 88.0933 76.9045 88.38C77.0911 88.66 77.1845 88.9867 77.1845 89.36V93H76.1045V92.02L76.3345 92.05C76.2078 92.27 76.0445 92.46 75.8445 92.62C75.6511 92.78 75.4278 92.9033 75.1745 92.99C74.9278 93.0767 74.6511 93.12 74.3445 93.12ZM81.1157 95.2C80.7224 95.2 80.359 95.1367 80.0257 95.01C79.6924 94.8833 79.4057 94.7067 79.1657 94.48C78.9257 94.26 78.7457 94 78.6257 93.7L79.6657 93.27C79.759 93.5233 79.929 93.7333 80.1757 93.9C80.429 94.0667 80.739 94.15 81.1057 94.15C81.3924 94.15 81.649 94.0933 81.8757 93.98C82.1024 93.8733 82.2824 93.7133 82.4157 93.5C82.549 93.2933 82.6157 93.0433 82.6157 92.75V91.53L82.8157 91.76C82.629 92.1067 82.369 92.37 82.0357 92.55C81.709 92.73 81.339 92.82 80.9257 92.82C80.4257 92.82 79.9757 92.7033 79.5757 92.47C79.1757 92.2367 78.859 91.9167 78.6257 91.51C78.399 91.1033 78.2857 90.6467 78.2857 90.14C78.2857 89.6267 78.399 89.17 78.6257 88.77C78.859 88.37 79.1724 88.0533 79.5657 87.82C79.959 87.5867 80.409 87.47 80.9157 87.47C81.329 87.47 81.6957 87.56 82.0157 87.74C82.3424 87.9133 82.609 88.1667 82.8157 88.5L82.6657 88.78V87.59H83.7357V92.75C83.7357 93.2167 83.6224 93.6333 83.3957 94C83.1757 94.3733 82.869 94.6667 82.4757 94.88C82.0824 95.0933 81.629 95.2 81.1157 95.2ZM81.0557 91.77C81.3557 91.77 81.6224 91.7 81.8557 91.56C82.089 91.4133 82.2724 91.22 82.4057 90.98C82.5457 90.7333 82.6157 90.4567 82.6157 90.15C82.6157 89.8433 82.5457 89.5667 82.4057 89.32C82.2657 89.0733 82.079 88.88 81.8457 88.74C81.6124 88.5933 81.349 88.52 81.0557 88.52C80.749 88.52 80.4757 88.5933 80.2357 88.74C79.9957 88.88 79.8057 89.0733 79.6657 89.32C79.5324 89.56 79.4657 89.8367 79.4657 90.15C79.4657 90.45 79.5324 90.7233 79.6657 90.97C79.8057 91.2167 79.9957 91.4133 80.2357 91.56C80.4757 91.7 80.749 91.77 81.0557 91.77ZM87.5984 93.12C87.0584 93.12 86.5784 92.9967 86.1584 92.75C85.7451 92.4967 85.4218 92.1567 85.1884 91.73C84.9551 91.2967 84.8384 90.8133 84.8384 90.28C84.8384 89.7333 84.9551 89.25 85.1884 88.83C85.4284 88.41 85.7484 88.08 86.1484 87.84C86.5484 87.5933 87.0018 87.47 87.5084 87.47C87.9151 87.47 88.2784 87.54 88.5984 87.68C88.9184 87.82 89.1884 88.0133 89.4084 88.26C89.6284 88.5 89.7951 88.7767 89.9084 89.09C90.0284 89.4033 90.0884 89.7367 90.0884 90.09C90.0884 90.1767 90.0851 90.2667 90.0784 90.36C90.0718 90.4533 90.0584 90.54 90.0384 90.62H85.7284V89.72H89.3984L88.8584 90.13C88.9251 89.8033 88.9018 89.5133 88.7884 89.26C88.6818 89 88.5151 88.7967 88.2884 88.65C88.0684 88.4967 87.8084 88.42 87.5084 88.42C87.2084 88.42 86.9418 88.4967 86.7084 88.65C86.4751 88.7967 86.2951 89.01 86.1684 89.29C86.0418 89.5633 85.9918 89.8967 86.0184 90.29C85.9851 90.6567 86.0351 90.9767 86.1684 91.25C86.3084 91.5233 86.5018 91.7367 86.7484 91.89C87.0018 92.0433 87.2884 92.12 87.6084 92.12C87.9351 92.12 88.2118 92.0467 88.4384 91.9C88.6718 91.7533 88.8551 91.5633 88.9884 91.33L89.9084 91.78C89.8018 92.0333 89.6351 92.2633 89.4084 92.47C89.1884 92.67 88.9218 92.83 88.6084 92.95C88.3018 93.0633 87.9651 93.12 87.5984 93.12ZM93.1913 93.12C92.6379 93.12 92.1513 92.9833 91.7313 92.71C91.3179 92.4367 91.0279 92.07 90.8612 91.61L91.7313 91.2C91.8779 91.5067 92.0779 91.75 92.3313 91.93C92.5913 92.11 92.8779 92.2 93.1913 92.2C93.4579 92.2 93.6746 92.14 93.8413 92.02C94.0079 91.9 94.0913 91.7367 94.0913 91.53C94.0913 91.3967 94.0546 91.29 93.9813 91.21C93.9079 91.1233 93.8146 91.0533 93.7013 91C93.5946 90.9467 93.4846 90.9067 93.3713 90.88L92.5213 90.64C92.0546 90.5067 91.7046 90.3067 91.4713 90.04C91.2446 89.7667 91.1313 89.45 91.1313 89.09C91.1313 88.7633 91.2146 88.48 91.3813 88.24C91.5479 87.9933 91.7779 87.8033 92.0713 87.67C92.3646 87.5367 92.6946 87.47 93.0613 87.47C93.5546 87.47 93.9946 87.5933 94.3813 87.84C94.7679 88.08 95.0413 88.4167 95.2013 88.85L94.3313 89.26C94.2246 89 94.0546 88.7933 93.8213 88.64C93.5946 88.4867 93.3379 88.41 93.0513 88.41C92.8046 88.41 92.6079 88.47 92.4613 88.59C92.3146 88.7033 92.2413 88.8533 92.2413 89.04C92.2413 89.1667 92.2746 89.2733 92.3413 89.36C92.4079 89.44 92.4946 89.5067 92.6013 89.56C92.7079 89.6067 92.8179 89.6467 92.9313 89.68L93.8113 89.94C94.2579 90.0667 94.6013 90.2667 94.8413 90.54C95.0813 90.8067 95.2013 91.1267 95.2013 91.5C95.2013 91.82 95.1146 92.1033 94.9413 92.35C94.7746 92.59 94.5413 92.78 94.2413 92.92C93.9413 93.0533 93.5913 93.12 93.1913 93.12Z" fill="#BCBDBD"/>
</g>
<defs>
<clipPath id="clip0_2_25318">
<path d="M0 24C0 10.7452 10.7452 0 24 0H293C306.255 0 317 10.7452 317 24V96C317 109.255 306.255 120 293 120H24C10.7452 120 0 109.255 0 96V24Z" fill="white"/>
</clipPath>
</defs>
</svg>
