<svg width="317" height="120" viewBox="0 0 317 120" fill="none" xmlns="http://www.w3.org/2000/svg">
<g clip-path="url(#clip0_2_25494)">
<path d="M0 24C0 10.7452 10.7452 0 24 0H293C306.255 0 317 10.7452 317 24V96C317 109.255 306.255 120 293 120H24C10.7452 120 0 109.255 0 96V24Z" fill="#212121"/>
<path d="M16 28C16 21.3726 21.3726 16 28 16H107C113.627 16 119 21.3726 119 28C119 34.6274 113.627 40 107 40H28C21.3726 40 16 34.6274 16 28Z" fill="#EDF2FA" fill-opacity="0.1"/>
<path fill-rule="evenodd" clip-rule="evenodd" d="M33.2522 22.2709C33.2522 22.271 33.2523 22.2707 33.2522 22.2709L32.026 24.7424C31.8953 25.0101 31.6771 25.2389 31.4529 25.4063C31.2281 25.5743 30.9488 25.717 30.6613 25.7662L30.6595 25.7665L28.4347 26.139C28.4346 26.139 28.4348 26.139 28.4347 26.139C27.8142 26.2433 27.6121 26.4896 27.5654 26.6369C27.5185 26.7848 27.5419 27.104 27.9862 27.5518L29.716 29.295C29.9409 29.5216 30.0913 29.8247 30.1743 30.1167C30.2573 30.4089 30.2883 30.745 30.2193 31.0554L30.2185 31.0589L29.7233 33.2168C29.5388 34.0201 29.7254 34.3132 29.8201 34.3829C29.9153 34.4529 30.2503 34.5425 30.9554 34.1208L33.0449 32.8743C33.335 32.7042 33.6824 32.6341 34.0011 32.6341C34.3192 32.6341 34.6668 32.704 34.9555 32.8764C34.9554 32.8763 34.9556 32.8764 34.9555 32.8764L37.0406 34.1203C37.0405 34.1202 37.0407 34.1203 37.0406 34.1203C37.7514 34.5433 38.0862 34.4541 38.1796 34.3854C38.2722 34.3174 38.4587 34.026 38.2736 33.2164L37.7776 31.0554C37.7086 30.745 37.7397 30.4089 37.8227 30.1167C37.9056 29.8247 38.056 29.5216 38.2809 29.295L40.0107 27.5518L40.012 27.5505C40.4592 27.1029 40.4813 26.7845 40.4345 26.6379C40.3873 26.4901 40.1835 26.2434 39.5625 26.1391C39.5624 26.139 39.5626 26.1391 39.5625 26.1391L37.3375 25.7665C37.0471 25.7177 36.7655 25.5756 36.5389 25.4071C36.3132 25.2393 36.0948 25.0103 35.964 24.7425L34.7368 22.2689C34.4433 21.6742 34.145 21.5544 33.9976 21.5544C33.8493 21.5544 33.5492 21.6757 33.2522 22.2709ZM35.6733 21.7989C35.3042 21.0512 34.7272 20.5 33.9976 20.5C33.2688 20.5 32.69 21.0503 32.3174 21.7974L31.0893 24.2726L31.0874 24.2765C31.0506 24.3523 30.9625 24.4602 30.8298 24.5594C30.6975 24.6582 30.5692 24.7123 30.4869 24.7266C30.4866 24.7266 30.4864 24.7267 30.4862 24.7267L28.263 25.0989C27.4608 25.2337 26.7871 25.6271 26.5687 26.3162C26.3505 27.0048 26.6724 27.7188 27.2464 28.2973L28.9762 30.0406C29.0443 30.1092 29.1206 30.2385 29.1684 30.4069C29.216 30.5742 29.22 30.726 29.1987 30.8234C29.1986 30.8239 29.1985 30.8243 29.1984 30.8248L28.7039 32.9792C28.7039 32.9792 28.7039 32.9792 28.7039 32.9792C28.4978 33.877 28.5693 34.7683 29.2034 35.2346C29.8372 35.7007 30.7018 35.4986 31.4894 35.0275L33.571 33.7857C33.5715 33.7854 33.5719 33.7852 33.5723 33.7849C33.666 33.7305 33.8202 33.6885 34.0011 33.6885C34.1833 33.6885 34.3344 33.731 34.4223 33.7835L36.508 35.0278C37.2966 35.4972 38.1623 35.703 38.7959 35.2374C39.4305 34.7712 39.4986 33.8782 39.2931 32.9797L38.7986 30.8248C38.7985 30.8243 38.7984 30.8239 38.7983 30.8234C38.777 30.726 38.781 30.5742 38.8285 30.4069C38.8764 30.2385 38.9526 30.1092 39.0207 30.0406L40.7493 28.2986C40.7495 28.2984 40.7497 28.2981 40.75 28.2979C41.3276 27.7194 41.6505 27.0048 41.4306 26.3152C41.2109 25.6266 40.5359 25.2336 39.7342 25.099L37.5092 24.7264C37.5091 24.7264 37.5093 24.7265 37.5092 24.7264M35.6733 21.7989C35.6732 21.7987 35.6734 21.799 35.6733 21.7989V21.7989Z" fill="white"/>
<path d="M52.22 32.12C51.6867 32.12 51.1933 32.0233 50.74 31.83C50.2933 31.6367 49.9 31.3667 49.56 31.02C49.2267 30.6733 48.9667 30.2667 48.78 29.8C48.5933 29.3333 48.5 28.8233 48.5 28.27C48.5 27.7167 48.59 27.2067 48.77 26.74C48.9567 26.2667 49.2167 25.86 49.55 25.52C49.89 25.1733 50.2867 24.9067 50.74 24.72C51.1933 24.5267 51.6867 24.43 52.22 24.43C52.7533 24.43 53.23 24.52 53.65 24.7C54.0767 24.88 54.4367 25.12 54.73 25.42C55.0233 25.7133 55.2333 26.0367 55.36 26.39L54.14 26.96C54 26.5867 53.7633 26.28 53.43 26.04C53.0967 25.7933 52.6933 25.67 52.22 25.67C51.7533 25.67 51.34 25.78 50.98 26C50.6267 26.22 50.35 26.5233 50.15 26.91C49.9567 27.2967 49.86 27.75 49.86 28.27C49.86 28.79 49.9567 29.2467 50.15 29.64C50.35 30.0267 50.6267 30.33 50.98 30.55C51.34 30.77 51.7533 30.88 52.22 30.88C52.6933 30.88 53.0967 30.76 53.43 30.52C53.7633 30.2733 54 29.9633 54.14 29.59L55.36 30.16C55.2333 30.5133 55.0233 30.84 54.73 31.14C54.4367 31.4333 54.0767 31.67 53.65 31.85C53.23 32.03 52.7533 32.12 52.22 32.12ZM56.8641 32V24.55H58.2241V27.8H61.3941V24.55H62.7641V32H61.3941V29H58.2241V32H56.8641ZM64.5981 32V24.55H69.5481V25.75H65.9581V27.66H69.3481V28.86H65.9581V30.8H69.5481V32H64.5981ZM70.9454 32V24.55H72.2454L75.0354 28.34H74.4154L77.1454 24.55H78.4454V32H77.0754V26.1L77.6054 26.23L74.7754 30H74.6154L71.8554 26.23L72.3054 26.1V32H70.9454ZM80.2712 32V24.55H81.6312V32H80.2712ZM86.1241 32.12C85.6508 32.12 85.2108 32.0333 84.8041 31.86C84.4041 31.6867 84.0575 31.4467 83.7641 31.14C83.4775 30.8267 83.2675 30.4633 83.1341 30.05L84.2641 29.56C84.4441 29.9867 84.7041 30.3233 85.0441 30.57C85.3841 30.81 85.7675 30.93 86.1941 30.93C86.4341 30.93 86.6408 30.8933 86.8141 30.82C86.9941 30.74 87.1308 30.6333 87.2241 30.5C87.3241 30.3667 87.3741 30.2067 87.3741 30.02C87.3741 29.8 87.3075 29.62 87.1741 29.48C87.0475 29.3333 86.8541 29.22 86.5941 29.14L85.1641 28.68C84.5841 28.5 84.1475 28.23 83.8541 27.87C83.5608 27.51 83.4141 27.0867 83.4141 26.6C83.4141 26.1733 83.5175 25.7967 83.7241 25.47C83.9375 25.1433 84.2308 24.89 84.6041 24.71C84.9841 24.5233 85.4175 24.43 85.9041 24.43C86.3508 24.43 86.7608 24.51 87.1341 24.67C87.5075 24.8233 87.8275 25.04 88.0941 25.32C88.3675 25.5933 88.5708 25.9167 88.7041 26.29L87.5841 26.79C87.4375 26.4167 87.2175 26.13 86.9241 25.93C86.6308 25.7233 86.2908 25.62 85.9041 25.62C85.6775 25.62 85.4775 25.66 85.3041 25.74C85.1308 25.8133 84.9941 25.92 84.8941 26.06C84.8008 26.1933 84.7541 26.3533 84.7541 26.54C84.7541 26.7467 84.8208 26.93 84.9541 27.09C85.0875 27.2433 85.2908 27.3633 85.5641 27.45L86.9341 27.88C87.5275 28.0733 87.9708 28.34 88.2641 28.68C88.5641 29.02 88.7141 29.44 88.7141 29.94C88.7141 30.3667 88.6041 30.7433 88.3841 31.07C88.1641 31.3967 87.8608 31.6533 87.4741 31.84C87.0875 32.0267 86.6375 32.12 86.1241 32.12ZM91.6588 32V25.75H89.7288V24.55H94.9288V25.75H93.0288V32H91.6588ZM96.1587 32V24.55H98.9287C99.4353 24.55 99.882 24.6433 100.269 24.83C100.662 25.01 100.969 25.2767 101.189 25.63C101.409 25.9767 101.519 26.4 101.519 26.9C101.519 27.4133 101.395 27.85 101.149 28.21C100.909 28.57 100.582 28.8367 100.169 29.01L101.879 32H100.339L98.5087 28.73L99.3887 29.25H97.5187V32H96.1587ZM97.5187 28.05H98.9487C99.1953 28.05 99.4087 28.0033 99.5887 27.91C99.7687 27.81 99.9087 27.6733 100.009 27.5C100.109 27.3267 100.159 27.1267 100.159 26.9C100.159 26.6667 100.109 26.4667 100.009 26.3C99.9087 26.1267 99.7687 25.9933 99.5887 25.9C99.4087 25.8 99.1953 25.75 98.9487 25.75H97.5187V28.05ZM104.972 32V28.7L102.462 24.55H104.012L105.932 27.79H105.382L107.292 24.55H108.842L106.342 28.69V32H104.972Z" fill="white"/>
<path d="M22.146 73.168C21.39 73.168 20.6853 73.0327 20.032 72.762C19.388 72.4913 18.8187 72.1133 18.324 71.628C17.8387 71.1427 17.456 70.5733 17.176 69.92C16.9053 69.2667 16.77 68.5527 16.77 67.778C16.77 67.0033 16.9053 66.2893 17.176 65.636C17.456 64.9733 17.8387 64.404 18.324 63.928C18.8093 63.4427 19.3787 63.0693 20.032 62.808C20.6853 62.5373 21.39 62.402 22.146 62.402C22.9113 62.402 23.616 62.5373 24.26 62.808C24.9133 63.0693 25.4827 63.4427 25.968 63.928C26.4627 64.4133 26.8453 64.9827 27.116 65.636C27.3867 66.2893 27.522 67.0033 27.522 67.778C27.522 68.5527 27.382 69.2667 27.102 69.92C26.8313 70.5733 26.4533 71.1427 25.968 71.628C25.4827 72.1133 24.9133 72.4913 24.26 72.762C23.6067 73.0327 22.902 73.168 22.146 73.168ZM22.146 71.656C22.6873 71.656 23.182 71.558 23.63 71.362C24.0873 71.166 24.484 70.8953 24.82 70.55C25.156 70.1953 25.4173 69.7847 25.604 69.318C25.7907 68.842 25.884 68.3287 25.884 67.778C25.884 67.2273 25.7907 66.7187 25.604 66.252C25.4173 65.7853 25.156 65.3747 24.82 65.02C24.484 64.6653 24.0873 64.39 23.63 64.194C23.182 63.998 22.6873 63.9 22.146 63.9C21.6047 63.9 21.1053 63.998 20.648 64.194C20.2 64.39 19.808 64.6653 19.472 65.02C19.136 65.3747 18.8747 65.7853 18.688 66.252C18.5107 66.7187 18.422 67.2273 18.422 67.778C18.422 68.3287 18.5107 68.842 18.688 69.318C18.8747 69.7847 19.136 70.1953 19.472 70.55C19.808 70.8953 20.2047 71.166 20.662 71.362C21.1193 71.558 21.614 71.656 22.146 71.656ZM29.215 73V65.426H30.727V66.91L30.545 66.714C30.7317 66.238 31.0303 65.8787 31.441 65.636C31.8517 65.384 32.3277 65.258 32.869 65.258C33.429 65.258 33.9237 65.3793 34.353 65.622C34.7823 65.8647 35.1183 66.2007 35.361 66.63C35.6037 67.0593 35.725 67.554 35.725 68.114V73H34.157V68.534C34.157 68.1513 34.087 67.8293 33.947 67.568C33.807 67.2973 33.6063 67.092 33.345 66.952C33.093 66.8027 32.8037 66.728 32.477 66.728C32.1503 66.728 31.8563 66.8027 31.595 66.952C31.343 67.092 31.147 67.2973 31.007 67.568C30.867 67.8387 30.797 68.1607 30.797 68.534V73H29.215ZM37.4181 73V62.402H39.0001V73H37.4181ZM41.5218 76.094C41.3351 76.094 41.1484 76.0753 40.9618 76.038C40.7844 76.01 40.6211 75.9633 40.4718 75.898V74.54C40.5838 74.568 40.7191 74.5913 40.8778 74.61C41.0364 74.638 41.1904 74.652 41.3398 74.652C41.7784 74.652 42.1004 74.554 42.3058 74.358C42.5204 74.1713 42.7118 73.8773 42.8798 73.476L43.3838 72.328L43.3558 73.658L40.0798 65.426H41.7738L44.1958 71.74H43.6218L46.0298 65.426H47.7378L44.3918 73.826C44.2144 74.274 43.9904 74.666 43.7198 75.002C43.4584 75.3473 43.1458 75.6133 42.7818 75.8C42.4271 75.996 42.0071 76.094 41.5218 76.094ZM51.4218 73V62.57H53.0738V73H51.4218ZM55.0822 73V65.426H56.5942V66.91L56.4122 66.714C56.5989 66.238 56.8975 65.8787 57.3082 65.636C57.7189 65.384 58.1949 65.258 58.7362 65.258C59.2962 65.258 59.7909 65.3793 60.2202 65.622C60.6495 65.8647 60.9855 66.2007 61.2282 66.63C61.4709 67.0593 61.5922 67.554 61.5922 68.114V73H60.0242V68.534C60.0242 68.1513 59.9542 67.8293 59.8142 67.568C59.6742 67.2973 59.4735 67.092 59.2122 66.952C58.9602 66.8027 58.6709 66.728 58.3442 66.728C58.0175 66.728 57.7235 66.8027 57.4622 66.952C57.2102 67.092 57.0142 67.2973 56.8742 67.568C56.7342 67.8387 56.6642 68.1607 56.6642 68.534V73H55.0822ZM66.9393 73.168C66.2113 73.168 65.544 72.9953 64.9373 72.65C64.34 72.3047 63.864 71.8333 63.5093 71.236C63.1547 70.6387 62.9773 69.962 62.9773 69.206C62.9773 68.4407 63.1547 67.764 63.5093 67.176C63.864 66.5787 64.34 66.112 64.9373 65.776C65.5347 65.4307 66.202 65.258 66.9393 65.258C67.686 65.258 68.3533 65.4307 68.9413 65.776C69.5387 66.112 70.01 66.5787 70.3553 67.176C70.71 67.764 70.8873 68.4407 70.8873 69.206C70.8873 69.9713 70.71 70.6527 70.3553 71.25C70.0007 71.8473 69.5247 72.3187 68.9273 72.664C68.33 73 67.6673 73.168 66.9393 73.168ZM66.9393 71.698C67.3873 71.698 67.784 71.5907 68.1293 71.376C68.4747 71.1613 68.7453 70.8673 68.9413 70.494C69.1467 70.1113 69.2493 69.682 69.2493 69.206C69.2493 68.73 69.1467 68.3053 68.9413 67.932C68.7453 67.5587 68.4747 67.2647 68.1293 67.05C67.784 66.8353 67.3873 66.728 66.9393 66.728C66.5007 66.728 66.104 66.8353 65.7493 67.05C65.404 67.2647 65.1287 67.5587 64.9233 67.932C64.7273 68.3053 64.6293 68.73 64.6293 69.206C64.6293 69.682 64.7273 70.1113 64.9233 70.494C65.1287 70.8673 65.404 71.1613 65.7493 71.376C66.104 71.5907 66.5007 71.698 66.9393 71.698ZM72.4318 73V65.426H73.9438V66.952L73.8038 66.728C73.9718 66.2333 74.2425 65.8787 74.6158 65.664C74.9891 65.44 75.4371 65.328 75.9598 65.328H76.4218V66.77H75.7638C75.2411 66.77 74.8165 66.9333 74.4898 67.26C74.1725 67.5773 74.0138 68.0347 74.0138 68.632V73H72.4318ZM81.1581 76.08C80.6074 76.08 80.0987 75.9913 79.6321 75.814C79.1654 75.6367 78.7641 75.3893 78.4281 75.072C78.0921 74.764 77.8401 74.4 77.6721 73.98L79.1281 73.378C79.2587 73.7327 79.4967 74.0267 79.8421 74.26C80.1967 74.4933 80.6307 74.61 81.1441 74.61C81.5454 74.61 81.9047 74.5307 82.2221 74.372C82.5394 74.2227 82.7914 73.9987 82.9781 73.7C83.1647 73.4107 83.2581 73.0607 83.2581 72.65V70.942L83.5381 71.264C83.2767 71.7493 82.9127 72.118 82.4461 72.37C81.9887 72.622 81.4707 72.748 80.8921 72.748C80.1921 72.748 79.5621 72.5847 79.0021 72.258C78.4421 71.9313 77.9987 71.4833 77.6721 70.914C77.3547 70.3447 77.1961 69.7053 77.1961 68.996C77.1961 68.2773 77.3547 67.638 77.6721 67.078C77.9987 66.518 78.4374 66.0747 78.9881 65.748C79.5387 65.4213 80.1687 65.258 80.8781 65.258C81.4567 65.258 81.9701 65.384 82.4181 65.636C82.8754 65.8787 83.2487 66.2333 83.5381 66.7L83.3281 67.092V65.426H84.8261V72.65C84.8261 73.3033 84.6674 73.8867 84.3501 74.4C84.0421 74.9227 83.6127 75.3333 83.0621 75.632C82.5114 75.9307 81.8767 76.08 81.1581 76.08ZM81.0741 71.278C81.4941 71.278 81.8674 71.18 82.1941 70.984C82.5207 70.7787 82.7774 70.508 82.9641 70.172C83.1601 69.8267 83.2581 69.4393 83.2581 69.01C83.2581 68.5807 83.1601 68.1933 82.9641 67.848C82.7681 67.5027 82.5067 67.232 82.1801 67.036C81.8534 66.8307 81.4847 66.728 81.0741 66.728C80.6447 66.728 80.2621 66.8307 79.9261 67.036C79.5901 67.232 79.3241 67.5027 79.1281 67.848C78.9414 68.184 78.8481 68.5713 78.8481 69.01C78.8481 69.43 78.9414 69.8127 79.1281 70.158C79.3241 70.5033 79.5901 70.7787 79.9261 70.984C80.2621 71.18 80.6447 71.278 81.0741 71.278ZM88.9459 73.168C88.4326 73.168 87.9799 73.0793 87.5879 72.902C87.2052 72.7153 86.9066 72.4633 86.6919 72.146C86.4772 71.8193 86.3699 71.4367 86.3699 70.998C86.3699 70.5873 86.4586 70.2187 86.6359 69.892C86.8226 69.5653 87.1072 69.29 87.4899 69.066C87.8726 68.842 88.3532 68.6833 88.9319 68.59L91.5639 68.156V69.402L89.2399 69.808C88.8199 69.8827 88.5119 70.018 88.3159 70.214C88.1199 70.4007 88.0219 70.6433 88.0219 70.942C88.0219 71.2313 88.1292 71.4693 88.3439 71.656C88.5679 71.8333 88.8526 71.922 89.1979 71.922C89.6272 71.922 90.0006 71.8287 90.3179 71.642C90.6446 71.4553 90.8966 71.208 91.0739 70.9C91.2512 70.5827 91.3399 70.2327 91.3399 69.85V67.904C91.3399 67.5307 91.1999 67.2273 90.9199 66.994C90.6492 66.7513 90.2852 66.63 89.8279 66.63C89.4079 66.63 89.0392 66.742 88.7219 66.966C88.4139 67.1807 88.1852 67.4607 88.0359 67.806L86.7199 67.148C86.8599 66.7747 87.0886 66.448 87.4059 66.168C87.7232 65.8787 88.0919 65.6547 88.5119 65.496C88.9412 65.3373 89.3939 65.258 89.8699 65.258C90.4672 65.258 90.9946 65.37 91.4519 65.594C91.9186 65.818 92.2779 66.1307 92.5299 66.532C92.7912 66.924 92.9219 67.3813 92.9219 67.904V73H91.4099V71.628L91.7319 71.67C91.5546 71.978 91.3259 72.244 91.0459 72.468C90.7752 72.692 90.4626 72.8647 90.1079 72.986C89.7626 73.1073 89.3752 73.168 88.9459 73.168ZM94.7717 73V65.426H96.2837V66.91L96.1017 66.714C96.2883 66.238 96.587 65.8787 96.9977 65.636C97.4083 65.384 97.8843 65.258 98.4257 65.258C98.9857 65.258 99.4803 65.3793 99.9097 65.622C100.339 65.8647 100.675 66.2007 100.918 66.63C101.16 67.0593 101.282 67.554 101.282 68.114V73H99.7137V68.534C99.7137 68.1513 99.6437 67.8293 99.5037 67.568C99.3637 67.2973 99.163 67.092 98.9017 66.952C98.6497 66.8027 98.3603 66.728 98.0337 66.728C97.707 66.728 97.413 66.8027 97.1517 66.952C96.8997 67.092 96.7037 67.2973 96.5637 67.568C96.4237 67.8387 96.3537 68.1607 96.3537 68.534V73H94.7717ZM102.975 73V65.426H104.557V73H102.975ZM102.975 64.39V62.57H104.557V64.39H102.975ZM110.004 73.168C109.248 73.168 108.576 72.9953 107.988 72.65C107.41 72.2953 106.948 71.8193 106.602 71.222C106.266 70.6247 106.098 69.948 106.098 69.192C106.098 68.4453 106.266 67.7733 106.602 67.176C106.938 66.5787 107.4 66.112 107.988 65.776C108.576 65.4307 109.248 65.258 110.004 65.258C110.518 65.258 110.998 65.3513 111.446 65.538C111.894 65.7153 112.282 65.9627 112.608 66.28C112.944 66.5973 113.192 66.966 113.35 67.386L111.964 68.03C111.806 67.638 111.549 67.3253 111.194 67.092C110.849 66.8493 110.452 66.728 110.004 66.728C109.575 66.728 109.188 66.8353 108.842 67.05C108.506 67.2553 108.24 67.5493 108.044 67.932C107.848 68.3053 107.75 68.73 107.75 69.206C107.75 69.682 107.848 70.1113 108.044 70.494C108.24 70.8673 108.506 71.1613 108.842 71.376C109.188 71.5907 109.575 71.698 110.004 71.698C110.462 71.698 110.858 71.5813 111.194 71.348C111.54 71.1053 111.796 70.7833 111.964 70.382L113.35 71.04C113.201 71.4413 112.958 71.8053 112.622 72.132C112.296 72.4493 111.908 72.7013 111.46 72.888C111.012 73.0747 110.527 73.168 110.004 73.168ZM122.356 73.168C121.619 73.168 120.933 73.0327 120.298 72.762C119.673 72.4913 119.127 72.118 118.66 71.642C118.203 71.1567 117.843 70.5873 117.582 69.934C117.321 69.2807 117.19 68.562 117.19 67.778C117.19 67.0033 117.316 66.2893 117.568 65.636C117.829 64.9733 118.193 64.404 118.66 63.928C119.127 63.4427 119.673 63.0693 120.298 62.808C120.923 62.5373 121.609 62.402 122.356 62.402C123.093 62.402 123.751 62.528 124.33 62.78C124.918 63.032 125.413 63.3633 125.814 63.774C126.215 64.1753 126.505 64.614 126.682 65.09L125.198 65.79C124.974 65.23 124.615 64.7773 124.12 64.432C123.635 64.0773 123.047 63.9 122.356 63.9C121.665 63.9 121.054 64.0633 120.522 64.39C119.99 64.7167 119.575 65.1693 119.276 65.748C118.987 66.3267 118.842 67.0033 118.842 67.778C118.842 68.5527 118.987 69.234 119.276 69.822C119.575 70.4007 119.99 70.8533 120.522 71.18C121.054 71.4973 121.665 71.656 122.356 71.656C123.047 71.656 123.635 71.4833 124.12 71.138C124.615 70.7927 124.974 70.34 125.198 69.78L126.682 70.48C126.505 70.9467 126.215 71.3853 125.814 71.796C125.413 72.2067 124.918 72.538 124.33 72.79C123.751 73.042 123.093 73.168 122.356 73.168ZM128.227 73V62.402H129.809V66.91L129.557 66.714C129.743 66.238 130.042 65.8787 130.453 65.636C130.863 65.384 131.339 65.258 131.881 65.258C132.441 65.258 132.935 65.3793 133.365 65.622C133.794 65.8647 134.13 66.2007 134.373 66.63C134.615 67.0593 134.737 67.5493 134.737 68.1V73H133.169V68.534C133.169 68.1513 133.094 67.8293 132.945 67.568C132.805 67.2973 132.609 67.092 132.357 66.952C132.105 66.8027 131.815 66.728 131.489 66.728C131.171 66.728 130.882 66.8027 130.621 66.952C130.369 67.092 130.168 67.2973 130.019 67.568C129.879 67.8387 129.809 68.1607 129.809 68.534V73H128.227ZM139.986 73.168C139.23 73.168 138.558 72.9953 137.97 72.65C137.391 72.2953 136.939 71.8193 136.612 71.222C136.285 70.6153 136.122 69.9387 136.122 69.192C136.122 68.4267 136.285 67.75 136.612 67.162C136.948 66.574 137.396 66.112 137.956 65.776C138.516 65.4307 139.151 65.258 139.86 65.258C140.429 65.258 140.938 65.356 141.386 65.552C141.834 65.748 142.212 66.0187 142.52 66.364C142.828 66.7 143.061 67.0873 143.22 67.526C143.388 67.9647 143.472 68.4313 143.472 68.926C143.472 69.0473 143.467 69.1733 143.458 69.304C143.449 69.4347 143.43 69.556 143.402 69.668H137.368V68.408H142.506L141.75 68.982C141.843 68.5247 141.811 68.1187 141.652 67.764C141.503 67.4 141.269 67.1153 140.952 66.91C140.644 66.6953 140.28 66.588 139.86 66.588C139.44 66.588 139.067 66.6953 138.74 66.91C138.413 67.1153 138.161 67.414 137.984 67.806C137.807 68.1887 137.737 68.6553 137.774 69.206C137.727 69.7193 137.797 70.1673 137.984 70.55C138.18 70.9327 138.451 71.2313 138.796 71.446C139.151 71.6607 139.552 71.768 140 71.768C140.457 71.768 140.845 71.6653 141.162 71.46C141.489 71.2547 141.745 70.9887 141.932 70.662L143.22 71.292C143.071 71.6467 142.837 71.9687 142.52 72.258C142.212 72.538 141.839 72.762 141.4 72.93C140.971 73.0887 140.499 73.168 139.986 73.168ZM145.016 73V65.426H146.528V67.064L146.332 66.812C146.49 66.2987 146.78 65.9113 147.2 65.65C147.62 65.3887 148.1 65.258 148.642 65.258C149.248 65.258 149.785 65.4213 150.252 65.748C150.728 66.0653 151.045 66.49 151.204 67.022L150.756 67.064C150.98 66.4573 151.32 66.0047 151.778 65.706C152.244 65.4073 152.776 65.258 153.374 65.258C153.896 65.258 154.368 65.3793 154.788 65.622C155.217 65.8647 155.558 66.2007 155.81 66.63C156.062 67.0593 156.188 67.5493 156.188 68.1V73H154.606V68.534C154.606 68.1513 154.536 67.8293 154.396 67.568C154.265 67.2973 154.078 67.092 153.836 66.952C153.602 66.8027 153.327 66.728 153.01 66.728C152.692 66.728 152.412 66.8027 152.17 66.952C151.927 67.092 151.736 67.2973 151.596 67.568C151.456 67.8387 151.386 68.1607 151.386 68.534V73H149.818V68.534C149.818 68.1513 149.748 67.8293 149.608 67.568C149.477 67.2973 149.29 67.092 149.048 66.952C148.814 66.8027 148.534 66.728 148.208 66.728C147.89 66.728 147.61 66.8027 147.368 66.952C147.125 67.092 146.934 67.2973 146.794 67.568C146.663 67.8387 146.598 68.1607 146.598 68.534V73H145.016ZM156.957 73.98H170.957V59.98H156.957V73.98Z" fill="white"/>
<path d="M16.5 93V92.15L18.54 89.97C18.94 89.5433 19.2533 89.2 19.48 88.94C19.7133 88.6733 19.88 88.44 19.98 88.24C20.0867 88.04 20.14 87.83 20.14 87.61C20.14 87.25 20.03 86.9733 19.81 86.78C19.59 86.58 19.3067 86.48 18.96 86.48C18.6 86.48 18.29 86.5833 18.03 86.79C17.77 86.99 17.59 87.2833 17.49 87.67L16.45 87.37C16.53 86.9767 16.69 86.6367 16.93 86.35C17.17 86.0567 17.4633 85.83 17.81 85.67C18.1633 85.51 18.5433 85.43 18.95 85.43C19.4233 85.43 19.8367 85.52 20.19 85.7C20.5433 85.8733 20.8167 86.1167 21.01 86.43C21.21 86.7433 21.31 87.1067 21.31 87.52C21.31 87.7933 21.2567 88.06 21.15 88.32C21.05 88.5733 20.8933 88.8433 20.68 89.13C20.4667 89.41 20.1933 89.7267 19.86 90.08L18.06 92H21.45V93H16.5ZM24.9066 93.12C24.5066 93.12 24.1299 93.0467 23.7766 92.9C23.4299 92.7533 23.1299 92.5467 22.8766 92.28C22.6299 92.0133 22.4532 91.7 22.3466 91.34L23.3466 90.96C23.4799 91.3133 23.6832 91.5867 23.9566 91.78C24.2299 91.9733 24.5466 92.07 24.9066 92.07C25.1999 92.07 25.4532 92.0133 25.6666 91.9C25.8866 91.7867 26.0566 91.6267 26.1766 91.42C26.3032 91.2133 26.3666 90.9633 26.3666 90.67C26.3666 90.3833 26.3032 90.1367 26.1766 89.93C26.0566 89.7233 25.8866 89.5667 25.6666 89.46C25.4532 89.3533 25.1999 89.3 24.9066 89.3C24.7866 89.3 24.6632 89.31 24.5366 89.33C24.4166 89.35 24.3099 89.3767 24.2166 89.41L23.9566 88.86L25.9166 86.55H22.7466V85.55H27.2366V86.5L25.3166 88.8L25.2866 88.42C25.7332 88.4267 26.1266 88.5267 26.4666 88.72C26.8066 88.9067 27.0699 89.1667 27.2566 89.5C27.4499 89.8267 27.5466 90.2067 27.5466 90.64C27.5466 91.1067 27.4332 91.53 27.2066 91.91C26.9799 92.2833 26.6666 92.58 26.2666 92.8C25.8732 93.0133 25.4199 93.12 24.9066 93.12ZM29.8498 93V86.55H28.4198V85.55H31.0198V93H29.8498ZM34.4139 93V87.59H35.4939V88.65L35.3639 88.51C35.4972 88.17 35.7106 87.9133 36.0039 87.74C36.2972 87.56 36.6372 87.47 37.0239 87.47C37.4239 87.47 37.7772 87.5567 38.0839 87.73C38.3906 87.9033 38.6306 88.1433 38.8039 88.45C38.9772 88.7567 39.0639 89.11 39.0639 89.51V93H37.9439V89.81C37.9439 89.5367 37.8939 89.3067 37.7939 89.12C37.6939 88.9267 37.5506 88.78 37.3639 88.68C37.1839 88.5733 36.9772 88.52 36.7439 88.52C36.5106 88.52 36.3006 88.5733 36.1139 88.68C35.9339 88.78 35.7939 88.9267 35.6939 89.12C35.5939 89.3133 35.5439 89.5433 35.5439 89.81V93H34.4139ZM42.8133 93.12C42.2733 93.12 41.7933 92.9967 41.3733 92.75C40.9599 92.4967 40.6366 92.1567 40.4033 91.73C40.1699 91.2967 40.0533 90.8133 40.0533 90.28C40.0533 89.7333 40.1699 89.25 40.4033 88.83C40.6433 88.41 40.9633 88.08 41.3633 87.84C41.7633 87.5933 42.2166 87.47 42.7233 87.47C43.1299 87.47 43.4933 87.54 43.8133 87.68C44.1333 87.82 44.4033 88.0133 44.6233 88.26C44.8433 88.5 45.0099 88.7767 45.1233 89.09C45.2433 89.4033 45.3033 89.7367 45.3033 90.09C45.3033 90.1767 45.2999 90.2667 45.2933 90.36C45.2866 90.4533 45.2733 90.54 45.2533 90.62H40.9433V89.72H44.6133L44.0733 90.13C44.1399 89.8033 44.1166 89.5133 44.0033 89.26C43.8966 89 43.7299 88.7967 43.5033 88.65C43.2833 88.4967 43.0233 88.42 42.7233 88.42C42.4233 88.42 42.1566 88.4967 41.9233 88.65C41.6899 88.7967 41.5099 89.01 41.3833 89.29C41.2566 89.5633 41.2066 89.8967 41.2333 90.29C41.1999 90.6567 41.2499 90.9767 41.3833 91.25C41.5233 91.5233 41.7166 91.7367 41.9633 91.89C42.2166 92.0433 42.5033 92.12 42.8233 92.12C43.1499 92.12 43.4266 92.0467 43.6533 91.9C43.8866 91.7533 44.0699 91.5633 44.2033 91.33L45.1233 91.78C45.0166 92.0333 44.8499 92.2633 44.6233 92.47C44.4033 92.67 44.1366 92.83 43.8233 92.95C43.5166 93.0633 43.1799 93.12 42.8133 93.12ZM47.7161 93L45.8561 87.59H47.0561L48.4761 91.9H48.0561L49.5061 87.59H50.5361L51.9761 91.9H51.5561L52.9861 87.59H54.1861L52.3161 93H51.2961L49.8361 88.59H50.2061L48.7461 93H47.7161ZM56.7088 93V87.59H57.7888V88.76L57.6488 88.58C57.7622 88.2133 57.9688 87.9367 58.2688 87.75C58.5688 87.5633 58.9122 87.47 59.2988 87.47C59.7322 87.47 60.1155 87.5867 60.4488 87.82C60.7888 88.0467 61.0155 88.35 61.1288 88.73L60.8088 88.76C60.9688 88.3267 61.2122 88.0033 61.5388 87.79C61.8722 87.5767 62.2522 87.47 62.6788 87.47C63.0522 87.47 63.3888 87.5567 63.6888 87.73C63.9955 87.9033 64.2388 88.1433 64.4188 88.45C64.5988 88.7567 64.6888 89.1067 64.6888 89.5V93H63.5588V89.81C63.5588 89.5367 63.5088 89.3067 63.4088 89.12C63.3155 88.9267 63.1822 88.78 63.0088 88.68C62.8422 88.5733 62.6455 88.52 62.4188 88.52C62.1922 88.52 61.9922 88.5733 61.8188 88.68C61.6455 88.78 61.5088 88.9267 61.4088 89.12C61.3088 89.3133 61.2588 89.5433 61.2588 89.81V93H60.1388V89.81C60.1388 89.5367 60.0888 89.3067 59.9888 89.12C59.8955 88.9267 59.7622 88.78 59.5888 88.68C59.4222 88.5733 59.2222 88.52 58.9888 88.52C58.7622 88.52 58.5622 88.5733 58.3888 88.68C58.2155 88.78 58.0788 88.9267 57.9788 89.12C57.8855 89.3133 57.8388 89.5433 57.8388 89.81V93H56.7088ZM68.4383 93.12C67.8983 93.12 67.4183 92.9967 66.9983 92.75C66.5849 92.4967 66.2616 92.1567 66.0283 91.73C65.7949 91.2967 65.6783 90.8133 65.6783 90.28C65.6783 89.7333 65.7949 89.25 66.0283 88.83C66.2683 88.41 66.5883 88.08 66.9883 87.84C67.3883 87.5933 67.8416 87.47 68.3483 87.47C68.7549 87.47 69.1183 87.54 69.4383 87.68C69.7583 87.82 70.0283 88.0133 70.2483 88.26C70.4683 88.5 70.6349 88.7767 70.7483 89.09C70.8683 89.4033 70.9283 89.7367 70.9283 90.09C70.9283 90.1767 70.9249 90.2667 70.9183 90.36C70.9116 90.4533 70.8983 90.54 70.8783 90.62H66.5683V89.72H70.2383L69.6983 90.13C69.7649 89.8033 69.7416 89.5133 69.6283 89.26C69.5216 89 69.3549 88.7967 69.1283 88.65C68.9083 88.4967 68.6483 88.42 68.3483 88.42C68.0483 88.42 67.7816 88.4967 67.5483 88.65C67.3149 88.7967 67.1349 89.01 67.0083 89.29C66.8816 89.5633 66.8316 89.8967 66.8583 90.29C66.8249 90.6567 66.8749 90.9767 67.0083 91.25C67.1483 91.5233 67.3416 91.7367 67.5883 91.89C67.8416 92.0433 68.1283 92.12 68.4483 92.12C68.7749 92.12 69.0516 92.0467 69.2783 91.9C69.5116 91.7533 69.6949 91.5633 69.8283 91.33L70.7483 91.78C70.6416 92.0333 70.4749 92.2633 70.2483 92.47C70.0283 92.67 69.7616 92.83 69.4483 92.95C69.1416 93.0633 68.8049 93.12 68.4383 93.12ZM74.0311 93.12C73.4778 93.12 72.9911 92.9833 72.5711 92.71C72.1578 92.4367 71.8678 92.07 71.7011 91.61L72.5711 91.2C72.7178 91.5067 72.9178 91.75 73.1711 91.93C73.4311 92.11 73.7178 92.2 74.0311 92.2C74.2978 92.2 74.5144 92.14 74.6811 92.02C74.8478 91.9 74.9311 91.7367 74.9311 91.53C74.9311 91.3967 74.8944 91.29 74.8211 91.21C74.7478 91.1233 74.6544 91.0533 74.5411 91C74.4344 90.9467 74.3244 90.9067 74.2111 90.88L73.3611 90.64C72.8944 90.5067 72.5444 90.3067 72.3111 90.04C72.0844 89.7667 71.9711 89.45 71.9711 89.09C71.9711 88.7633 72.0544 88.48 72.2211 88.24C72.3878 87.9933 72.6178 87.8033 72.9111 87.67C73.2044 87.5367 73.5344 87.47 73.9011 87.47C74.3944 87.47 74.8344 87.5933 75.2211 87.84C75.6078 88.08 75.8811 88.4167 76.0411 88.85L75.1711 89.26C75.0644 89 74.8944 88.7933 74.6611 88.64C74.4344 88.4867 74.1778 88.41 73.8911 88.41C73.6444 88.41 73.4478 88.47 73.3011 88.59C73.1544 88.7033 73.0811 88.8533 73.0811 89.04C73.0811 89.1667 73.1144 89.2733 73.1811 89.36C73.2478 89.44 73.3344 89.5067 73.4411 89.56C73.5478 89.6067 73.6578 89.6467 73.7711 89.68L74.6511 89.94C75.0978 90.0667 75.4411 90.2667 75.6811 90.54C75.9211 90.8067 76.0411 91.1267 76.0411 91.5C76.0411 91.82 75.9544 92.1033 75.7811 92.35C75.6144 92.59 75.3811 92.78 75.0811 92.92C74.7811 93.0533 74.4311 93.12 74.0311 93.12ZM79.1483 93.12C78.5949 93.12 78.1083 92.9833 77.6883 92.71C77.2749 92.4367 76.9849 92.07 76.8183 91.61L77.6883 91.2C77.8349 91.5067 78.0349 91.75 78.2883 91.93C78.5483 92.11 78.8349 92.2 79.1483 92.2C79.4149 92.2 79.6316 92.14 79.7983 92.02C79.9649 91.9 80.0483 91.7367 80.0483 91.53C80.0483 91.3967 80.0116 91.29 79.9383 91.21C79.8649 91.1233 79.7716 91.0533 79.6583 91C79.5516 90.9467 79.4416 90.9067 79.3283 90.88L78.4783 90.64C78.0116 90.5067 77.6616 90.3067 77.4283 90.04C77.2016 89.7667 77.0883 89.45 77.0883 89.09C77.0883 88.7633 77.1716 88.48 77.3383 88.24C77.5049 87.9933 77.7349 87.8033 78.0283 87.67C78.3216 87.5367 78.6516 87.47 79.0183 87.47C79.5116 87.47 79.9516 87.5933 80.3383 87.84C80.7249 88.08 80.9983 88.4167 81.1583 88.85L80.2883 89.26C80.1816 89 80.0116 88.7933 79.7783 88.64C79.5516 88.4867 79.2949 88.41 79.0083 88.41C78.7616 88.41 78.5649 88.47 78.4183 88.59C78.2716 88.7033 78.1983 88.8533 78.1983 89.04C78.1983 89.1667 78.2316 89.2733 78.2983 89.36C78.3649 89.44 78.4516 89.5067 78.5583 89.56C78.6649 89.6067 78.7749 89.6467 78.8883 89.68L79.7683 89.94C80.2149 90.0667 80.5583 90.2667 80.7983 90.54C81.0383 90.8067 81.1583 91.1267 81.1583 91.5C81.1583 91.82 81.0716 92.1033 80.8983 92.35C80.7316 92.59 80.4983 92.78 80.1983 92.92C79.8983 93.0533 79.5483 93.12 79.1483 93.12ZM83.8855 93.12C83.5188 93.12 83.1955 93.0567 82.9155 92.93C82.6421 92.7967 82.4288 92.6167 82.2755 92.39C82.1221 92.1567 82.0455 91.8833 82.0455 91.57C82.0455 91.2767 82.1088 91.0133 82.2355 90.78C82.3688 90.5467 82.5721 90.35 82.8455 90.19C83.1188 90.03 83.4621 89.9167 83.8755 89.85L85.7555 89.54V90.43L84.0955 90.72C83.7955 90.7733 83.5755 90.87 83.4355 91.01C83.2955 91.1433 83.2255 91.3167 83.2255 91.53C83.2255 91.7367 83.3021 91.9067 83.4555 92.04C83.6155 92.1667 83.8188 92.23 84.0655 92.23C84.3721 92.23 84.6388 92.1633 84.8655 92.03C85.0988 91.8967 85.2788 91.72 85.4055 91.5C85.5321 91.2733 85.5955 91.0233 85.5955 90.75V89.36C85.5955 89.0933 85.4955 88.8767 85.2955 88.71C85.1021 88.5367 84.8421 88.45 84.5155 88.45C84.2155 88.45 83.9521 88.53 83.7255 88.69C83.5055 88.8433 83.3421 89.0433 83.2355 89.29L82.2955 88.82C82.3955 88.5533 82.5588 88.32 82.7855 88.12C83.0121 87.9133 83.2755 87.7533 83.5755 87.64C83.8821 87.5267 84.2055 87.47 84.5455 87.47C84.9721 87.47 85.3488 87.55 85.6755 87.71C86.0088 87.87 86.2655 88.0933 86.4455 88.38C86.6321 88.66 86.7255 88.9867 86.7255 89.36V93H85.6455V92.02L85.8755 92.05C85.7488 92.27 85.5855 92.46 85.3855 92.62C85.1921 92.78 84.9688 92.9033 84.7155 92.99C84.4688 93.0767 84.1921 93.12 83.8855 93.12ZM90.6567 95.2C90.2634 95.2 89.9001 95.1367 89.5667 95.01C89.2334 94.8833 88.9467 94.7067 88.7067 94.48C88.4667 94.26 88.2867 94 88.1667 93.7L89.2067 93.27C89.3001 93.5233 89.4701 93.7333 89.7167 93.9C89.9701 94.0667 90.2801 94.15 90.6467 94.15C90.9334 94.15 91.1901 94.0933 91.4167 93.98C91.6434 93.8733 91.8234 93.7133 91.9567 93.5C92.0901 93.2933 92.1567 93.0433 92.1567 92.75V91.53L92.3567 91.76C92.1701 92.1067 91.9101 92.37 91.5767 92.55C91.2501 92.73 90.8801 92.82 90.4667 92.82C89.9667 92.82 89.5167 92.7033 89.1167 92.47C88.7167 92.2367 88.4001 91.9167 88.1667 91.51C87.9401 91.1033 87.8267 90.6467 87.8267 90.14C87.8267 89.6267 87.9401 89.17 88.1667 88.77C88.4001 88.37 88.7134 88.0533 89.1067 87.82C89.5001 87.5867 89.9501 87.47 90.4567 87.47C90.8701 87.47 91.2367 87.56 91.5567 87.74C91.8834 87.9133 92.1501 88.1667 92.3567 88.5L92.2067 88.78V87.59H93.2767V92.75C93.2767 93.2167 93.1634 93.6333 92.9367 94C92.7167 94.3733 92.4101 94.6667 92.0167 94.88C91.6234 95.0933 91.1701 95.2 90.6567 95.2ZM90.5967 91.77C90.8967 91.77 91.1634 91.7 91.3967 91.56C91.6301 91.4133 91.8134 91.22 91.9467 90.98C92.0867 90.7333 92.1567 90.4567 92.1567 90.15C92.1567 89.8433 92.0867 89.5667 91.9467 89.32C91.8067 89.0733 91.6201 88.88 91.3867 88.74C91.1534 88.5933 90.8901 88.52 90.5967 88.52C90.2901 88.52 90.0167 88.5933 89.7767 88.74C89.5367 88.88 89.3467 89.0733 89.2067 89.32C89.0734 89.56 89.0067 89.8367 89.0067 90.15C89.0067 90.45 89.0734 90.7233 89.2067 90.97C89.3467 91.2167 89.5367 91.4133 89.7767 91.56C90.0167 91.7 90.2901 91.77 90.5967 91.77ZM97.1395 93.12C96.5995 93.12 96.1195 92.9967 95.6995 92.75C95.2861 92.4967 94.9628 92.1567 94.7295 91.73C94.4961 91.2967 94.3795 90.8133 94.3795 90.28C94.3795 89.7333 94.4961 89.25 94.7295 88.83C94.9695 88.41 95.2895 88.08 95.6895 87.84C96.0895 87.5933 96.5428 87.47 97.0495 87.47C97.4561 87.47 97.8195 87.54 98.1395 87.68C98.4595 87.82 98.7295 88.0133 98.9495 88.26C99.1695 88.5 99.3361 88.7767 99.4495 89.09C99.5695 89.4033 99.6295 89.7367 99.6295 90.09C99.6295 90.1767 99.6261 90.2667 99.6195 90.36C99.6128 90.4533 99.5995 90.54 99.5795 90.62H95.2695V89.72H98.9395L98.3995 90.13C98.4661 89.8033 98.4428 89.5133 98.3295 89.26C98.2228 89 98.0561 88.7967 97.8295 88.65C97.6095 88.4967 97.3495 88.42 97.0495 88.42C96.7495 88.42 96.4828 88.4967 96.2495 88.65C96.0161 88.7967 95.8361 89.01 95.7095 89.29C95.5828 89.5633 95.5328 89.8967 95.5595 90.29C95.5261 90.6567 95.5761 90.9767 95.7095 91.25C95.8495 91.5233 96.0428 91.7367 96.2895 91.89C96.5428 92.0433 96.8295 92.12 97.1495 92.12C97.4761 92.12 97.7528 92.0467 97.9795 91.9C98.2128 91.7533 98.3961 91.5633 98.5295 91.33L99.4495 91.78C99.3428 92.0333 99.1761 92.2633 98.9495 92.47C98.7295 92.67 98.4628 92.83 98.1495 92.95C97.8428 93.0633 97.5061 93.12 97.1395 93.12ZM102.732 93.12C102.179 93.12 101.692 92.9833 101.272 92.71C100.859 92.4367 100.569 92.07 100.402 91.61L101.272 91.2C101.419 91.5067 101.619 91.75 101.872 91.93C102.132 92.11 102.419 92.2 102.732 92.2C102.999 92.2 103.216 92.14 103.382 92.02C103.549 91.9 103.632 91.7367 103.632 91.53C103.632 91.3967 103.596 91.29 103.522 91.21C103.449 91.1233 103.356 91.0533 103.242 91C103.136 90.9467 103.026 90.9067 102.912 90.88L102.062 90.64C101.596 90.5067 101.246 90.3067 101.012 90.04C100.786 89.7667 100.672 89.45 100.672 89.09C100.672 88.7633 100.756 88.48 100.922 88.24C101.089 87.9933 101.319 87.8033 101.612 87.67C101.906 87.5367 102.236 87.47 102.602 87.47C103.096 87.47 103.536 87.5933 103.922 87.84C104.309 88.08 104.582 88.4167 104.742 88.85L103.872 89.26C103.766 89 103.596 88.7933 103.362 88.64C103.136 88.4867 102.879 88.41 102.592 88.41C102.346 88.41 102.149 88.47 102.002 88.59C101.856 88.7033 101.782 88.8533 101.782 89.04C101.782 89.1667 101.816 89.2733 101.882 89.36C101.949 89.44 102.036 89.5067 102.142 89.56C102.249 89.6067 102.359 89.6467 102.472 89.68L103.352 89.94C103.799 90.0667 104.142 90.2667 104.382 90.54C104.622 90.8067 104.742 91.1267 104.742 91.5C104.742 91.82 104.656 92.1033 104.482 92.35C104.316 92.59 104.082 92.78 103.782 92.92C103.482 93.0533 103.132 93.12 102.732 93.12Z" fill="#BCBDBD"/>
</g>
<defs>
<clipPath id="clip0_2_25494">
<path d="M0 24C0 10.7452 10.7452 0 24 0H293C306.255 0 317 10.7452 317 24V96C317 109.255 306.255 120 293 120H24C10.7452 120 0 109.255 0 96V24Z" fill="white"/>
</clipPath>
</defs>
</svg>
