<svg width="24" height="24" viewBox="0 0 24 24" fill="none" xmlns="http://www.w3.org/2000/svg">
<path d="M10.8412 7.02112C11.592 6.74599 12.408 6.74599 13.1588 7.02112C13.5569 7.16703 13.998 6.96272 14.144 6.56478C14.29 6.16684 14.0856 5.72596 13.6874 5.58005C12.5953 5.17983 11.4047 5.17983 10.3126 5.58005C9.91441 5.72596 9.70999 6.16684 9.85598 6.56478C10.002 6.96272 10.4431 7.16703 10.8412 7.02112Z" fill="#3592FD"/>
<path d="M12.633 9.21158C12.2189 9.10226 11.791 9.10226 11.3769 9.21158C10.9669 9.31983 10.5467 9.07538 10.4384 8.66559C10.3301 8.2558 10.5747 7.83584 10.9847 7.7276C11.6558 7.55041 12.3541 7.55041 13.0252 7.7276C13.4352 7.83584 13.6798 8.2558 13.5715 8.66559C13.4632 9.07538 13.043 9.31983 12.633 9.21158Z" fill="#3592FD"/>
<path fill-rule="evenodd" clip-rule="evenodd" d="M7.13733 5.86047C7.13733 3.17522 9.31373 1 12.0004 1C14.6871 1 16.8635 3.17522 16.8635 5.86047V11.4884C16.8635 14.1736 14.6871 16.3488 12.0004 16.3488C9.31373 16.3488 7.13733 14.1736 7.13733 11.4884V5.86047ZM12.0004 2.53488C10.1619 2.53488 8.67304 4.02292 8.67304 5.86047V11.4884C8.67304 13.3259 10.1619 14.814 12.0004 14.814C13.839 14.814 15.3278 13.3259 15.3278 11.4884V5.86047C15.3278 4.02292 13.839 2.53488 12.0004 2.53488Z" fill="#3592FD"/>
<path d="M4.16788 8.82781C4.59196 8.82781 4.93574 9.1714 4.93574 9.59525V11.3348C4.93574 15.2291 8.10362 18.3953 12 18.3953C15.8964 18.3953 19.0643 15.2291 19.0643 11.3348V9.59525C19.0643 9.1714 19.4081 8.82781 19.8322 8.82781C20.2562 8.82781 20.6 9.1714 20.6 9.59525V11.3348C20.6 15.818 17.1539 19.507 12.7683 19.8962V22.2326C12.7683 22.6564 12.4245 23 12.0004 23C11.5763 23 11.2326 22.6564 11.2326 22.2326V19.8963C6.84662 19.5074 3.40002 15.8183 3.40002 11.3348V9.59525C3.40002 9.1714 3.74381 8.82781 4.16788 8.82781Z" fill="#3592FD"/>
</svg>
