<svg width="29" height="28" viewBox="0 0 29 28" fill="none" xmlns="http://www.w3.org/2000/svg">
<ellipse cx="14.3171" cy="14" rx="13.8293" ry="14" fill="#0266DA"/>
<path d="M20.8658 13.8879C20.8819 13.4352 20.6449 13.0205 20.2496 12.8043L11.0379 7.75554C10.6254 7.52286 10.1323 7.55432 9.73254 7.82382C9.32549 8.09786 9.10562 8.74626 9.20709 9.21319L9.99555 12.8377C10.0765 13.2094 10.4054 13.4696 10.7906 13.466L15.9816 13.4225C16.2475 13.4158 16.4582 13.6291 16.4469 13.8936C16.4402 14.1535 16.223 14.3659 15.9571 14.3726L10.7612 14.4121C10.376 14.4149 10.0336 14.6798 9.93346 15.053L8.94931 18.7013C8.83009 19.1325 8.94514 19.5617 9.24364 19.8638C9.27876 19.8994 9.31827 19.9394 9.35801 19.9704C9.74661 20.2719 10.2637 20.3079 10.7112 20.0711L20.1846 14.9735C20.591 14.7595 20.8496 14.3406 20.8658 13.8879Z" fill="#F5F5F5"/>
</svg>
